<?xml version="1.0" standalone="no"?>
<!DOCTYPE svg PUBLIC "-//W3C//DTD SVG 20010904//EN"
 "http://www.w3.org/TR/2001/REC-SVG-20010904/DTD/svg10.dtd">
<svg version="1.0" xmlns="http://www.w3.org/2000/svg"
viewBox="0 0 512 512"
 preserveAspectRatio="xMidYMid meet">

<g transform="translate(0.000000,465.000000) scale(0.100000,-0.100000)"
fill="#000000" stroke="none">
<path d="M0 4133 l0 -518 93 -22 c50 -12 148 -36 217 -53 69 -17 143 -35 165
-40 22 -5 67 -16 100 -25 33 -9 69 -18 81 -19 11 -2 25 -5 30 -9 5 -3 110 -30
234 -60 124 -31 306 -77 405 -102 99 -26 208 -53 243 -60 35 -7 65 -15 68 -18
3 -3 -14 -19 -38 -35 -24 -17 -59 -47 -78 -67 -33 -34 -35 -40 -36 -108 -1
-42 -11 -109 -26 -162 l-24 -90 -63 -8 c-135 -17 -218 -66 -290 -172 -68 -101
-75 -125 -76 -260 0 -116 1 -123 34 -192 18 -39 44 -82 57 -94 32 -30 30 -42
-13 -75 -21 -15 -54 -45 -74 -66 -41 -44 -52 -45 -140 -19 -35 11 -122 36
-194 56 -71 20 -166 47 -210 60 -197 57 -444 125 -454 125 -6 0 -11 -13 -11
-28 0 -26 4 -29 63 -44 34 -9 76 -21 92 -26 17 -6 75 -23 130 -37 55 -15 120
-33 145 -40 25 -7 66 -18 93 -25 26 -7 47 -16 47 -20 0 -7 -105 15 -185 40
-22 6 -65 18 -95 25 -30 7 -102 27 -159 44 -57 17 -110 31 -117 31 -12 0 -14
-61 -14 -358 l0 -359 43 -10 c23 -6 71 -20 107 -31 36 -11 101 -31 145 -44 77
-23 80 -25 112 -78 76 -128 189 -211 367 -268 72 -23 97 -26 231 -26 137 0
156 3 226 27 41 15 84 27 95 27 29 0 208 -61 216 -74 4 -6 8 -20 8 -31 0 -48
58 -141 133 -215 128 -125 323 -210 535 -231 179 -19 297 4 424 81 37 22 75
40 86 40 16 0 237 -66 672 -200 69 -21 179 -55 245 -75 66 -20 167 -51 225
-70 58 -18 173 -54 255 -79 l150 -46 238 0 237 0 -2 382 -3 382 -85 24 c-143
39 -181 50 -285 80 -55 16 -152 43 -215 60 -63 18 -164 46 -225 63 -60 17
-200 55 -310 84 -233 62 -235 63 -235 81 0 17 -17 19 -22 3 -5 -15 -68 -2 -68
14 1 21 47 70 59 63 23 -15 12 144 -18 264 -25 101 -94 311 -132 407 -9 23
-10 36 -3 43 17 17 256 32 404 25 282 -13 446 -63 639 -194 215 -147 386 -399
477 -701 21 -71 23 -73 23 -34 2 126 -185 473 -337 622 -182 179 -414 291
-662 322 -117 14 -315 12 -439 -4 -58 -8 -109 -12 -115 -9 -6 3 -34 40 -62 83
l-50 78 55 4 c186 13 257 172 180 403 -25 74 -83 153 -124 171 -28 11 -35 23
-63 111 -18 54 -52 129 -75 167 l-41 69 134 129 c336 321 428 410 476 455 158
149 375 356 429 408 34 33 121 116 194 185 123 116 195 185 362 346 l66 64
-1464 0 -1464 0 3 -532 c3 -527 3 -533 -17 -533 -20 0 -20 8 -23 533 l-2 532
-855 0 -855 0 0 -517z m2232 -1004 c109 -22 134 -34 106 -50 -9 -5 -39 -27
-67 -49 -58 -46 -73 -88 -47 -138 30 -57 75 -56 145 3 56 48 101 75 124 75 7
0 25 -12 39 -27 31 -34 108 -148 108 -161 0 -5 8 -17 19 -26 33 -30 111 2 129
54 11 30 -6 74 -49 129 -27 34 -24 42 12 29 48 -16 49 -19 152 -352 19 -61 38
-111 43 -113 5 -2 17 18 26 44 33 91 105 153 180 153 46 0 99 -55 135 -140 24
-57 27 -78 28 -175 0 -99 -2 -113 -23 -142 -48 -67 -178 -94 -271 -57 -39 15
-42 15 -68 -6 -31 -24 -34 -21 -47 43 -4 15 -10 27 -15 27 -5 0 -5 -19 1 -42
17 -79 -13 -180 -76 -256 -65 -76 -206 -135 -366 -153 -117 -14 -173 -5 -317
46 -93 33 -93 33 -156 18 -80 -19 -150 -12 -218 22 l-53 27 -56 -17 c-120 -38
-274 -25 -389 32 -77 39 -165 123 -194 186 -75 161 -56 317 55 462 64 82 119
113 243 134 l89 16 17 70 c9 39 23 88 30 110 14 38 16 40 52 37 46 -4 85 19
145 83 80 86 115 81 165 -23 28 -59 36 -67 63 -70 23 -2 38 5 67 33 45 44 48
81 12 140 -14 22 -25 44 -25 49 0 13 132 0 252 -25z m-1577 -1269 l20 -9 -20
1 c-11 0 -31 4 -45 8 l-25 8 25 0 c14 0 34 -3 45 -8z m121 -36 c10 -8 13 -12
6 -9 -8 4 -26 11 -40 15 -22 7 -23 8 -6 9 11 1 29 -6 40 -15z m232 -138 c15
-8 35 -27 44 -43 15 -27 16 -32 2 -51 -16 -23 -44 -30 -44 -11 0 6 -9 8 -21 4
-13 -4 -27 0 -40 11 -20 18 -21 17 -23 -36 -1 -47 -25 -46 -51 2 -19 35 -19
38 -2 73 11 22 30 41 50 50 41 18 52 18 85 1z m592 -25 c78 -33 126 -65 173
-116 50 -53 63 -116 27 -135 -18 -10 -26 -6 -57 25 -65 65 -193 116 -328 130
-119 12 -255 -35 -313 -110 -33 -42 -52 -27 -52 41 0 60 24 100 83 139 81 54
131 65 272 61 108 -3 128 -7 195 -35z m104 -6 c3 -9 0 -15 -8 -15 -7 0 -19 7
-26 15 -10 12 -9 15 8 15 11 0 22 -7 26 -15z m-902 -88 c12 -20 -12 -37 -45
-30 -38 7 -62 27 -52 43 9 15 86 5 97 -13z m-126 -2 c3 -7 27 -22 52 -31 59
-22 70 -32 72 -69 3 -51 1 -54 -42 -66 -54 -14 -118 -76 -119 -115 -3 -69 10
-98 61 -134 39 -28 38 -19 -4 28 -43 47 -53 95 -29 141 26 50 73 71 161 71 66
0 73 2 68 18 -4 10 0 26 7 37 13 17 17 15 67 -33 43 -41 52 -56 48 -76 -3 -15
1 -31 9 -37 11 -10 12 0 7 60 -7 76 4 94 26 41 20 -48 110 -124 176 -148 142
-50 249 -62 359 -37 42 9 83 14 90 11 8 -3 21 -19 30 -36 16 -31 16 -31 -19
-64 -52 -47 -121 -68 -226 -68 -85 0 -88 -1 -93 -24 -3 -20 -2 -22 10 -13 7 7
16 9 20 5 11 -10 -65 -82 -110 -104 -58 -29 -158 -52 -252 -58 -162 -12 -372
46 -490 136 -69 53 -150 156 -165 209 -38 138 27 258 184 337 76 38 94 41 102
19z m192 -32 c12 -19 20 -38 17 -41 -9 -9 -55 40 -55 60 0 27 12 21 38 -19z
m147 11 c21 -21 3 -44 -36 -44 -28 0 -47 28 -34 50 10 15 52 12 70 -6z m-21
-60 c17 -7 22 -34 7 -34 -21 0 -41 13 -41 26 0 15 10 17 34 8z m-134 -54 c0
-5 -2 -10 -4 -10 -3 0 -8 5 -11 10 -3 6 -1 10 4 10 6 0 11 -4 11 -10z m145 0
c11 -17 -5 -32 -21 -19 -8 6 -14 15 -14 20 0 12 27 11 35 -1z m989 -19 c23
-19 21 -107 -3 -147 -28 -46 -87 -87 -143 -100 -54 -13 -73 -2 -39 22 27 19
28 39 2 24 -11 -5 -30 -10 -43 -10 -19 1 -16 4 16 20 36 18 60 40 52 47 -2 2
-23 -6 -47 -17 -74 -33 -77 -22 -10 41 35 33 61 63 57 66 -3 3 -22 1 -42 -5
-49 -15 -41 3 22 46 44 31 54 34 106 30 31 -2 63 -10 72 -17z m755 -136 c25
-7 66 -19 91 -26 62 -16 90 -24 205 -58 55 -17 138 -40 185 -52 47 -12 90 -26
95 -32 7 -6 2 -8 -15 -3 -23 6 -124 34 -310 85 -41 11 -103 29 -137 40 -34 11
-79 23 -100 27 -41 7 -97 33 -74 34 7 0 34 -7 60 -15z m-559 -48 c58 -9 153
-18 212 -21 93 -4 114 -8 170 -35 104 -49 215 -174 254 -283 8 -22 14 -71 14
-107 0 -70 -27 -172 -40 -151 -5 8 -13 2 -26 -18 -29 -44 -132 -130 -173 -143
-43 -14 -82 -39 -62 -39 8 0 48 19 90 41 67 37 73 38 52 16 -41 -45 -176 -104
-269 -117 -204 -30 -455 36 -664 177 -79 53 -165 166 -139 182 5 3 -4 35 -21
71 -25 55 -29 73 -23 114 8 63 48 141 83 163 15 9 40 28 55 42 25 23 35 25 88
23 71 -4 127 19 179 74 39 40 31 40 220 11z m1240 -143 c25 -9 87 -27 139 -40
52 -14 101 -29 110 -35 23 -13 -19 -4 -165 37 -67 19 -129 34 -137 34 -9 0
-19 5 -22 10 -9 15 23 12 75 -6z m390 -111 c30 -8 65 -17 78 -20 12 -3 22 -9
22 -13 0 -5 -30 0 -67 11 -38 11 -80 22 -96 26 -15 3 -30 10 -33 15 -4 6 2 7
17 3 13 -5 49 -14 79 -22z m279 -79 c29 -8 51 -17 49 -19 -6 -6 -92 16 -102
26 -13 12 -8 11 53 -7z m121 -34 c12 -8 11 -10 -7 -10 -12 0 -25 5 -28 10 -8
13 15 13 35 0z m140 -40 c13 -9 13 -10 0 -9 -8 1 -26 5 -40 9 l-25 8 25 1 c14
0 32 -4 40 -9z m200 -56 c32 -13 33 -14 5 -8 -16 3 -35 7 -42 8 -7 1 -16 5
-19 9 -12 11 18 7 56 -9z m100 -30 c0 -2 -7 -4 -15 -4 -8 0 -15 4 -15 10 0 5
7 7 15 4 8 -4 15 -8 15 -10z"/>
<path d="M1687 2869 c-70 -14 -157 -74 -157 -108 0 -10 13 -2 38 21 20 20 52
43 70 52 115 58 277 3 332 -113 26 -54 47 -69 36 -25 -31 123 -176 202 -319
173z"/>
<path d="M2311 2744 c-52 -28 -101 -77 -89 -89 3 -4 17 5 31 19 41 41 107 69
178 74 57 4 75 1 128 -23 79 -36 145 -108 167 -182 18 -61 40 -73 29 -16 -17
91 -97 188 -181 217 -27 10 -85 20 -129 23 -74 5 -84 3 -134 -23z"/>
<path d="M1635 2699 c-43 -12 -90 -61 -110 -112 -44 -116 55 -222 220 -234 92
-7 162 14 205 63 76 87 7 228 -137 280 -43 15 -133 17 -178 3z m167 -170 c10
-5 22 -17 27 -27 23 -44 -41 -68 -115 -43 -41 13 -50 20 -52 43 -3 23 2 29 30
37 34 10 80 5 110 -10z"/>
<path d="M2308 2581 c-82 -27 -138 -90 -138 -155 0 -113 121 -196 287 -196
130 0 185 41 191 143 4 59 2 64 -33 109 -49 63 -118 96 -210 103 -38 2 -82 1
-97 -4z m141 -159 c51 -26 62 -49 32 -73 -46 -38 -162 -10 -169 42 -8 47 71
66 137 31z"/>
<path d="M1966 2145 c-22 -23 -42 -63 -51 -103 -4 -18 -10 -31 -13 -30 -69 38
-111 43 -166 22 -9 -3 -16 6 -19 25 -11 53 -30 37 -22 -16 4 -27 8 -50 10 -52
2 -1 14 4 27 13 13 9 43 16 70 16 41 0 54 -5 87 -35 l38 -35 6 55 c3 32 17 75
31 102 28 49 29 64 2 38z"/>
<path d="M1070 1226 c0 -2 8 -10 18 -17 15 -13 16 -12 3 4 -13 16 -21 21 -21
13z"/>
<path d="M440 1173 c0 -5 12 -20 28 -34 l27 -24 -25 30 c-14 17 -26 32 -27 34
-2 2 -3 0 -3 -6z"/>
<path d="M1173 1116 c0 -21 2 -23 16 -14 13 8 27 5 59 -11 23 -11 47 -21 54
-21 7 0 -18 16 -56 35 -39 19 -71 35 -72 35 -1 0 -1 -11 -1 -24z"/>
<path d="M750 1120 c0 -8 50 -24 56 -18 2 2 -10 9 -26 15 -17 6 -30 8 -30 3z"/>
<path d="M500 1103 c0 -17 117 -112 165 -134 58 -27 79 -22 23 5 -63 30 -126
74 -160 111 -15 17 -28 25 -28 18z"/>
<path d="M880 1074 c42 -20 226 -22 260 -4 32 17 19 21 -26 9 -37 -11 -189 -7
-244 5 -17 4 -13 1 10 -10z"/>
<path d="M1255 945 c-25 -12 -26 -14 -5 -9 14 4 29 10 35 15 12 12 5 11 -30
-6z"/>
<path d="M1843 1082 c2 -37 3 -38 28 -28 20 7 48 5 103 -7 42 -9 82 -17 89
-16 12 0 -119 40 -175 53 -16 4 -28 13 -28 21 0 8 -4 15 -10 15 -5 0 -9 -17
-7 -38z"/>
<path d="M1940 1117 c8 -7 187 -57 202 -56 16 1 -18 16 -54 23 -16 4 -27 12
-25 19 1 8 -18 13 -63 15 -35 2 -62 1 -60 -1z"/>
<path d="M2208 1043 c6 -2 18 -2 25 0 6 3 1 5 -13 5 -14 0 -19 -2 -12 -5z"/>
<path d="M2080 1026 c0 -10 188 -60 265 -70 59 -9 36 -1 -116 39 -139 36 -149
38 -149 31z"/>
<path d="M2403 1016 c4 -10 -1 -13 -16 -10 -21 4 -21 4 -2 -5 25 -12 82 -12
115 0 21 7 20 8 -10 4 -22 -3 -42 1 -54 10 -25 19 -40 19 -33 1z"/>
<path d="M2615 982 c72 -32 85 -40 85 -52 0 -5 -17 -2 -37 7 -54 22 -103 33
-103 21 0 -5 29 -23 65 -39 36 -16 65 -34 65 -40 0 -7 -7 -8 -17 -4 -48 19
-128 45 -140 45 -32 0 -8 -22 60 -54 43 -20 64 -35 51 -35 -36 -2 -156 47
-187 76 -22 21 -27 23 -19 8 17 -34 44 -53 102 -72 48 -16 56 -22 60 -48 l6
-30 13 23 c10 18 18 22 39 18 24 -5 29 -1 49 42 32 71 32 82 -2 103 -47 29
-115 59 -133 59 -9 0 10 -13 43 -28z"/>
<path d="M1790 965 c-16 -47 -4 -111 29 -157 14 -21 30 -38 34 -38 4 0 -3 15
-16 33 -38 50 -50 98 -37 147 14 52 6 64 -10 15z"/>
<path d="M1899 726 c14 -16 71 -51 71 -43 0 3 -19 17 -42 32 -25 16 -37 21
-29 11z"/>
<path d="M2537 664 c-15 -13 -24 -24 -19 -24 14 0 58 37 52 43 -3 3 -18 -6
-33 -19z"/>
<path d="M2004 666 c11 -9 24 -16 30 -16 12 0 7 5 -24 19 -24 11 -24 11 -6 -3z"/>
<path d="M2282 388 c35 -5 70 -5 90 1 27 7 16 9 -57 9 -90 0 -90 0 -33 -10z"/>
<path d="M3646 3546 c-42 -16 -57 -32 -49 -52 7 -19 63 -27 155 -22 64 4 84 9
94 23 8 11 14 22 14 27 0 29 -153 47 -214 24z"/>
<path d="M3993 3438 c-33 -16 -28 -35 13 -48 46 -15 121 -8 143 14 15 16 15
18 -3 32 -23 17 -120 18 -153 2z"/>
<path d="M4227 3433 c-10 -3 -17 -12 -15 -21 4 -24 76 -30 84 -7 4 9 5 18 3
20 -8 7 -55 13 -72 8z"/>
<path d="M77 2365 c-55 -14 -62 -19 -54 -40 5 -12 23 -15 86 -15 87 0 131 11
131 34 0 30 -87 41 -163 21z"/>
<path d="M352 2300 c-44 -10 -62 -28 -42 -40 23 -15 103 -11 125 6 20 15 20
15 1 30 -22 15 -34 16 -84 4z"/>
<path d="M4248 1453 c7 -3 16 -2 19 1 4 3 -2 6 -13 5 -11 0 -14 -3 -6 -6z"/>
<path d="M4285 1360 c-14 -6 2 -9 50 -8 50 0 63 2 45 8 -33 11 -70 11 -95 0z"/>
<path d="M4530 1282 c30 -27 56 -49 58 -47 8 7 -13 33 -46 55 -66 45 -68 43
-12 -8z"/>
<path d="M1019 29 c-26 -26 -17 -37 16 -19 19 10 30 11 50 2 43 -20 52 -13 20
13 -37 30 -59 31 -86 4z"/>
</g>
</svg>
