<?xml version="1.0" standalone="no"?>
<!DOCTYPE svg PUBLIC "-//W3C//DTD SVG 20010904//EN"
 "http://www.w3.org/TR/2001/REC-SVG-20010904/DTD/svg10.dtd">
<svg version="1.0" xmlns="http://www.w3.org/2000/svg"
 viewBox="0 0 512 512"
 preserveAspectRatio="xMidYMid meet">

<g transform="translate(0.000000,368.000000) scale(0.100000,-0.100000)"
fill="#000000" stroke="none">
<path d="M1882 3240 c-51 -23 -118 -76 -135 -106 -7 -12 -21 -37 -31 -55 -12
-22 -21 -59 -23 -104 -3 -64 -1 -74 25 -110 23 -33 91 -81 137 -98 6 -2 -7
-24 -28 -50 -88 -108 -97 -194 -33 -327 41 -84 45 -106 19 -95 -39 15 -77 24
-82 19 -9 -8 29 -33 42 -28 7 2 25 -8 40 -22 l28 -26 -20 -19 c-11 -10 -25
-19 -31 -19 -5 0 -10 -6 -10 -14 0 -11 -29 -26 -61 -30 -3 -1 -13 -9 -23 -18
-10 -10 -19 -18 -21 -18 -4 0 -23 35 -72 133 -34 68 -63 87 -77 51 -14 -38
-37 18 -27 65 1 2 10 -7 21 -20 19 -24 19 -24 20 -2 0 12 -6 28 -14 35 -11 12
-9 17 15 31 29 16 29 16 23 -7 -6 -25 5 -36 56 -56 19 -7 42 -19 50 -25 8 -7
23 -10 34 -6 16 6 14 10 -20 31 -21 13 -45 25 -52 26 -44 8 -55 31 -27 54 8 7
15 21 15 31 0 27 -33 24 -68 -6 -27 -23 -35 -24 -72 -16 -24 5 -49 7 -56 4
-16 -6 -19 -43 -4 -43 6 0 3 -11 -6 -25 -18 -28 -13 -55 12 -55 16 0 16 -1 0
-19 -21 -23 -16 -35 26 -55 41 -21 45 -20 73 9 l23 26 21 -30 c12 -16 21 -32
21 -36 0 -4 16 -34 36 -67 l36 -59 -32 -60 c-27 -51 -32 -74 -37 -154 -3 -52
-11 -99 -17 -104 -8 -7 -10 2 -8 31 3 22 0 38 -4 35 -9 -5 -13 27 -13 106 0
44 -12 47 -36 10 -17 -26 -20 -39 -23 -112 -2 -27 -5 -31 -16 -22 -8 7 -12 21
-9 34 5 22 5 22 -10 1 -10 -13 -18 -55 -22 -120 -5 -71 -14 -113 -30 -149 -13
-27 -28 -69 -35 -93 -11 -43 -30 -49 -30 -10 0 14 -5 18 -15 14 -8 -3 -19 2
-24 12 -8 14 -11 12 -17 -13 -11 -46 -25 -61 -40 -40 -14 19 -34 12 -34 -11 0
-8 -4 -14 -10 -14 -5 0 -10 20 -10 43 0 58 -31 83 -127 102 -39 8 -49 -6 -33
-46 9 -20 10 -33 3 -40 -7 -7 -19 6 -36 38 -14 26 -31 47 -39 46 -61 -8 -153
-35 -178 -53 -30 -21 -33 -28 -45 -105 -13 -75 -16 -88 -30 -122 -8 -19 -19
-32 -25 -28 -19 11 -31 -5 -19 -26 12 -22 14 -23 -98 34 -38 19 -44 20 -69 7
-15 -8 -35 -27 -43 -42 -25 -43 -39 -35 -38 20 l2 47 -37 3 c-44 4 -52 22 -10
22 66 0 80 65 19 88 -29 11 -33 10 -54 -16 -24 -29 -29 -52 -14 -68 12 -12
-10 -84 -25 -84 -6 0 -17 7 -24 15 -20 24 -54 15 -58 -15 -5 -38 -31 -90 -46
-90 -7 0 -21 -9 -31 -20 -10 -11 -31 -20 -46 -20 -22 0 -30 6 -35 25 -8 31
-28 28 -32 -6 -2 -13 -8 -28 -13 -34 -5 -5 -9 -56 -9 -113 l0 -104 24 16 c14
9 32 13 40 10 9 -3 24 -3 33 0 15 6 15 8 3 16 -8 5 -11 12 -7 16 4 4 14 -1 21
-12 14 -18 16 -18 55 14 34 28 44 31 62 22 15 -9 24 -8 35 1 10 8 14 8 14 0 0
-18 13 -13 46 16 46 41 69 52 85 43 7 -5 16 -5 19 -1 10 15 154 61 194 62 68
2 91 12 88 40 -1 17 1 20 7 10 6 -9 11 -10 15 -2 4 6 22 11 40 11 40 0 99 28
90 42 -4 6 1 8 15 3 12 -4 28 -2 36 5 8 7 42 14 75 17 33 3 63 10 66 14 3 5
18 9 33 9 16 0 36 9 47 21 14 16 27 20 54 16 19 -2 48 0 63 6 22 7 26 14 22
31 -5 15 -4 17 3 7 8 -11 11 -11 16 0 5 11 7 11 12 2 7 -15 34 -18 34 -4 0 5
-5 11 -12 13 -6 2 8 4 32 5 24 0 46 7 51 14 6 9 9 10 9 2 0 -18 39 -26 56 -12
11 9 12 15 3 25 -9 12 -4 14 32 14 28 0 60 9 87 25 23 13 49 22 56 19 7 -3 17
3 21 13 7 17 8 17 15 -2 8 -19 9 -19 9 2 1 12 6 25 12 29 8 4 9 0 4 -15 -4
-12 -2 -21 4 -21 6 0 11 9 11 19 0 11 5 23 11 27 8 4 9 -4 5 -27 -13 -66 -37
-175 -48 -214 -5 -22 -13 -75 -16 -119 -5 -71 -8 -83 -37 -115 -56 -64 -78
-101 -61 -101 9 0 23 11 32 25 9 14 20 22 25 19 5 -3 10 0 10 5 1 6 2 17 3 24
0 6 11 16 22 21 16 7 23 21 27 55 15 139 40 279 53 303 8 14 14 35 14 45 0 21
22 73 31 73 3 0 4 13 1 29 -3 21 1 32 14 39 29 15 92 24 98 14 6 -11 33 -8 66
6 14 6 47 14 73 17 32 4 50 12 54 23 4 9 15 29 25 44 25 36 23 108 -4 108 -51
0 -138 -93 -138 -148 0 -25 0 -25 -79 -19 -91 6 -151 29 -209 82 -66 59 -87
114 -85 217 1 79 4 93 33 145 36 64 58 85 140 143 31 21 61 44 67 52 17 19 -1
90 -38 154 -34 60 -37 106 -9 152 25 41 40 41 40 -1 0 -34 15 -57 37 -57 8 0
53 41 101 90 100 103 101 103 164 33 46 -49 84 -57 106 -22 18 29 7 70 -33
121 -34 43 -34 43 -12 52 12 5 92 10 177 10 128 -1 169 -5 235 -22 43 -12 83
-26 88 -31 5 -5 -11 -19 -38 -32 -50 -25 -105 -80 -105 -105 0 -19 19 -57 34
-66 16 -11 43 0 96 38 26 19 64 41 84 49 47 20 57 13 97 -67 16 -32 38 -67 49
-78 29 -29 74 -26 98 7 17 23 22 25 36 14 35 -29 60 -121 60 -222 0 -90 -2
-99 -39 -175 -29 -60 -58 -98 -116 -156 -42 -42 -89 -83 -105 -91 -34 -16
-176 -66 -281 -97 -40 -11 -73 -23 -73 -27 0 -11 98 10 198 43 56 19 111 34
122 34 10 0 22 5 25 10 3 6 17 10 30 10 30 0 196 59 215 77 12 11 8 13 -27 13
-23 0 -45 -4 -48 -10 -3 -5 -17 -10 -31 -10 -15 0 -23 4 -19 10 4 6 10 8 14 5
5 -2 17 3 27 11 17 14 17 15 1 10 -14 -5 27 57 96 144 17 21 19 26 37 112 12
63 11 179 -3 171 -5 -3 -7 3 -6 13 1 11 -5 36 -14 58 -9 21 -17 41 -17 43 0 3
-13 22 -30 43 -16 21 -30 40 -30 44 0 3 -13 26 -30 52 -16 26 -27 51 -23 57 3
6 1 7 -5 3 -6 -3 -13 3 -17 14 -3 11 -11 20 -17 20 -5 0 -23 10 -40 21 -22 16
-50 23 -114 27 -46 2 -84 9 -84 13 0 5 -8 9 -19 9 -10 0 -37 7 -60 15 -59 20
-127 27 -261 26 -145 0 -183 -3 -191 -15 -8 -10 -32 2 -25 13 5 7 0 8 -66 12
-61 5 -148 -50 -221 -139 -15 -19 -27 -29 -27 -23 0 6 -9 3 -19 -6 -11 -9 -17
-22 -14 -29 3 -8 1 -14 -5 -14 -6 0 -15 -12 -20 -27 l-10 -28 -1 35 c-1 45 9
81 20 74 5 -3 9 2 9 10 0 9 5 16 11 16 5 0 8 4 5 9 -6 9 48 61 64 61 5 0 10 7
10 15 0 8 4 15 10 15 5 0 7 7 3 15 -5 13 3 15 46 12 28 -2 54 0 57 4 3 5 14 9
25 9 10 0 19 5 19 10 0 6 9 10 20 10 11 0 20 6 20 14 0 8 9 18 20 21 11 3 20
15 20 25 0 11 9 21 23 25 12 3 31 10 42 15 11 5 42 19 69 30 100 44 404 45
501 1 11 -5 34 -14 51 -21 18 -6 41 -20 53 -31 12 -11 30 -21 39 -22 14 -1 17
-8 14 -29 -8 -57 7 -96 61 -151 49 -50 63 -58 154 -83 6 -1 19 -19 28 -38 10
-20 22 -36 27 -36 6 0 7 -7 4 -16 -3 -8 -2 -13 3 -9 14 8 75 -96 87 -147 1 -5
3 -10 4 -13 1 -3 3 -8 4 -12 1 -5 4 -12 7 -18 3 -5 7 -46 8 -90 1 -44 4 -87 7
-97 2 -9 0 -19 -6 -23 -5 -3 -10 -16 -10 -29 0 -24 -50 -82 -115 -133 -35 -28
-38 -32 -21 -39 10 -4 26 -2 35 5 9 6 28 19 43 30 16 10 25 20 22 24 -10 9 36
48 49 41 9 -5 9 -4 1 5 -9 10 -8 20 3 42 12 24 21 30 42 28 14 -2 31 -1 36 3
6 3 33 9 60 13 28 5 53 9 58 11 4 1 11 2 17 3 5 0 14 16 19 34 7 25 9 27 10
10 1 -25 12 -28 43 -12 13 7 18 7 14 1 -3 -6 3 -17 15 -25 12 -9 16 -18 10
-21 -14 -9 -2 -36 18 -37 9 -1 3 -4 -14 -8 -22 -5 -29 -12 -27 -25 3 -17 2
-17 -27 0 -16 10 -27 22 -24 28 10 16 -19 -9 -71 -61 -26 -25 -46 -49 -46 -52
0 -4 -27 -35 -59 -70 -33 -34 -63 -71 -66 -81 -7 -22 -31 -27 -38 -7 -2 6 -3
5 -2 -5 3 -20 -58 -82 -70 -71 -4 5 -5 3 -2 -3 8 -14 -29 -64 -48 -64 -12 0
-27 -23 -29 -45 -1 -5 -14 -12 -30 -15 -17 -3 -28 -9 -27 -14 2 -4 -10 -22
-26 -40 -45 -48 -52 -65 -59 -167 -3 -52 -13 -107 -21 -124 -9 -19 -12 -43 -8
-68 5 -24 2 -43 -5 -52 -19 -22 -29 -147 -14 -162 6 -7 14 -10 16 -7 3 2 19
-12 37 -31 17 -19 37 -35 43 -35 11 0 -28 49 -65 81 -17 14 -18 22 -7 100 18
137 62 393 69 407 4 7 97 103 206 215 110 111 224 230 254 265 30 34 59 62 66
62 7 0 24 -9 38 -20 23 -18 27 -19 41 -4 9 8 16 20 16 25 0 5 11 9 25 9 14 0
29 8 35 20 9 16 6 22 -17 34 -28 15 -28 16 -5 22 27 8 30 48 5 76 -13 14 -13
18 -2 18 11 0 11 2 -1 10 -8 5 -27 10 -42 10 -14 0 -28 6 -31 13 -3 9 -10 7
-25 -6 -20 -18 -21 -18 -32 2 -8 17 -17 20 -37 15 -22 -6 -25 -4 -20 10 4 9 3
14 -2 11 -5 -3 -8 -29 -6 -58 3 -34 1 -47 -5 -37 -7 12 -12 12 -22 2 -16 -16
-28 -15 -28 2 0 8 -10 22 -22 30 -20 15 -23 14 -42 -14 -34 -48 -43 -37 -49
55 -8 108 -44 212 -97 275 -22 26 -40 53 -40 59 0 6 12 13 28 16 74 16 137 51
167 94 28 40 30 49 30 130 0 112 -19 157 -89 209 -75 56 -102 67 -170 67 -104
0 -189 -52 -238 -148 -10 -21 -22 -37 -26 -35 -4 2 -30 15 -59 30 -157 83
-418 98 -584 33 -34 -14 -66 -25 -69 -25 -3 0 -4 29 -2 65 5 74 -7 111 -52
168 -59 73 -172 97 -264 57z m195 -33 c27 -13 48 -32 58 -53 8 -18 20 -36 25
-39 6 -3 9 -21 9 -38 -1 -18 -3 -24 -6 -14 -2 9 -8 17 -13 17 -5 0 -7 7 -4 15
4 9 0 15 -9 15 -9 0 -28 11 -42 25 -14 14 -25 23 -25 19 0 -3 -6 -2 -13 4 -20
17 -118 17 -162 1 -22 -7 -49 -24 -61 -36 -16 -17 -23 -20 -32 -11 -7 7 -12 8
-12 2 0 -6 5 -15 12 -22 9 -9 9 -12 0 -12 -7 0 -12 -7 -12 -16 0 -8 -4 -13 -9
-10 -11 7 -8 -141 4 -168 7 -16 5 -18 -8 -13 -11 4 -14 2 -10 -9 3 -9 9 -11
17 -5 7 6 23 -2 48 -25 21 -19 31 -34 23 -34 -7 0 -17 5 -20 10 -3 6 -14 10
-24 10 -24 0 -80 60 -91 99 -18 63 27 216 52 179 6 -9 7 -6 3 10 -4 14 -2 22
6 22 7 0 9 3 6 6 -10 10 35 45 50 39 8 -2 11 -1 8 4 -9 15 96 50 145 49 25 0
64 -10 87 -21z m-18 -77 c78 -39 116 -119 90 -184 -34 -83 -130 -143 -212
-134 -97 11 -147 64 -147 155 0 30 6 66 14 81 18 35 64 78 96 91 42 17 118 13
159 -9z m1204 -74 c9 -7 17 -19 17 -27 0 -11 2 -11 8 -2 6 9 18 4 45 -18 20
-17 35 -35 31 -40 -3 -5 0 -8 7 -7 17 4 40 -66 41 -120 0 -67 -21 -137 -48
-163 -13 -12 -27 -19 -31 -16 -3 4 -12 2 -20 -4 -9 -8 -13 -8 -13 -1 0 6 9 17
20 25 29 20 51 80 53 147 1 32 -1 56 -4 54 -4 -2 -14 11 -22 29 -25 51 -62 86
-122 113 l-54 25 -69 -20 c-38 -12 -81 -32 -96 -46 -35 -32 -33 -17 3 24 16
18 34 30 40 26 6 -3 11 -1 11 5 0 18 42 29 115 29 43 0 77 -5 88 -13z m-17
-64 c57 -31 104 -114 104 -185 0 -58 -54 -138 -107 -158 -123 -46 -293 60
-293 184 0 77 71 157 155 175 44 9 109 2 141 -16z m-1351 -192 c3 -5 1 -10 -4
-10 -6 0 -11 5 -11 10 0 6 2 10 4 10 3 0 8 -4 11 -10z m-265 -1355 c0 -7 -30
-13 -34 -7 -3 4 4 9 15 9 10 1 19 0 19 -2z m-375 -146 c5 -6 2 -9 -9 -9 -9 0
-25 7 -34 16 -15 15 -14 16 8 9 14 -4 29 -11 35 -16z"/>
<path d="M2034 2989 c-8 -14 15 -59 31 -59 18 0 23 9 18 31 -7 25 -39 44 -49
28z"/>
<path d="M3064 2845 c-7 -30 -1 -40 21 -32 20 8 20 57 0 57 -8 0 -17 -11 -21
-25z"/>
<path d="M2422 2865 c2 -28 8 -41 20 -43 15 -3 16 0 6 30 -17 52 -30 58 -26
13z"/>
<path d="M2549 2831 c-19 -16 -31 -33 -26 -37 4 -4 13 -2 19 4 7 7 20 12 29
12 25 0 42 25 26 38 -10 9 -22 5 -48 -17z"/>
<path d="M2006 2504 c-60 -34 -105 -105 -105 -164 1 -34 1 -34 12 11 26 101
89 153 187 153 74 0 152 -45 187 -109 7 -11 15 -17 18 -13 11 11 -35 62 -88
99 -42 28 -59 34 -115 36 -48 2 -75 -1 -96 -13z"/>
<path d="M2681 2499 c-59 -23 -141 -110 -141 -148 0 -9 15 7 34 34 43 64 65
84 113 100 43 15 92 11 140 -12 38 -18 116 -100 143 -152 11 -20 19 -31 20
-24 0 19 -58 112 -88 139 -64 59 -161 87 -221 63z"/>
<path d="M2075 2399 c-153 -74 -84 -277 100 -295 72 -6 118 13 152 65 28 42
29 73 3 130 -48 105 -157 148 -255 100z m170 -123 c28 -42 -10 -77 -68 -62
-33 8 -51 50 -31 71 24 24 81 19 99 -9z"/>
<path d="M2667 2389 c-104 -17 -157 -128 -106 -219 32 -57 88 -84 174 -85 52
0 78 5 98 18 69 45 88 142 41 204 -44 58 -136 95 -207 82z m78 -121 c26 -12
42 -48 30 -67 -10 -16 -78 -13 -103 5 -58 40 4 94 73 62z"/>
<path d="M3930 2330 c0 -13 18 -22 24 -11 3 5 -1 11 -9 15 -8 3 -15 1 -15 -4z"/>
<path d="M3855 2320 c3 -5 10 -10 16 -10 5 0 9 5 9 10 0 6 -7 10 -16 10 -8 0
-12 -4 -9 -10z"/>
<path d="M3175 2290 c3 -5 8 -10 11 -10 2 0 4 5 4 10 0 6 -5 10 -11 10 -5 0
-7 -4 -4 -10z"/>
<path d="M3495 2280 c3 -5 8 -10 11 -10 2 0 4 5 4 10 0 6 -5 10 -11 10 -5 0
-7 -4 -4 -10z"/>
<path d="M3730 2228 c11 -12 23 -18 27 -14 5 4 -1 14 -11 22 -30 21 -39 17
-16 -8z"/>
<path d="M4487 2229 c4 -15 8 -17 14 -8 8 14 3 29 -11 29 -4 0 -6 -9 -3 -21z"/>
<path d="M3782 2204 c-7 -8 -8 -14 -3 -14 10 0 25 19 20 25 -2 1 -10 -3 -17
-11z"/>
<path d="M4173 2145 c-7 -8 -13 -19 -13 -26 0 -9 -3 -9 -14 0 -8 7 -17 8 -19
3 -3 -4 3 -13 13 -20 14 -9 21 -8 30 3 6 8 18 11 27 8 11 -4 14 0 11 17 -4 28
-19 34 -35 15z"/>
<path d="M879 2073 c-2 -64 -3 -90 -7 -121 -3 -22 -22 -3 -22 22 0 12 -7 31
-15 42 -15 18 -16 14 -13 -48 4 -65 3 -68 -23 -77 -17 -6 -30 -6 -37 1 -7 7
-12 4 -15 -8 -10 -32 -12 -148 -4 -161 5 -7 26 -13 48 -13 l41 0 -4 70 c-2 39
0 70 5 70 4 0 7 -8 7 -18 0 -10 3 -22 7 -26 4 -4 6 -24 4 -44 -2 -29 4 -44 22
-62 58 -59 79 -71 131 -74 28 -2 58 -6 67 -10 8 -4 29 -8 45 -9 l29 -2 3 77
c2 67 0 78 -17 87 -21 12 -25 9 -56 -53 l-19 -38 -7 28 c-4 16 -10 63 -14 106
-5 57 -11 81 -26 94 -15 14 -19 29 -18 66 3 53 -14 84 -31 58 -5 -8 -10 -22
-10 -31 0 -9 -8 -23 -19 -33 -17 -16 -19 -15 -25 21 -3 21 -6 64 -6 96 0 81
-20 72 -21 -10z"/>
<path d="M181 2084 c0 -11 3 -14 6 -6 3 7 2 16 -1 19 -3 4 -6 -2 -5 -13z"/>
<path d="M716 2037 c-5 -15 -6 -31 -2 -34 11 -11 18 5 14 34 l-4 28 -8 -28z"/>
<path d="M3923 2005 c0 -28 12 -41 22 -25 8 12 -3 50 -14 50 -5 0 -8 -11 -8
-25z"/>
<path d="M4006 2002 c-3 -5 1 -15 9 -22 21 -17 27 -9 10 13 -7 10 -16 14 -19
9z"/>
<path d="M200 1950 c0 -19 3 -21 12 -12 9 9 9 15 0 24 -9 9 -12 7 -12 -12z"/>
<path d="M3860 1960 c0 -5 7 -10 16 -10 8 0 12 5 9 10 -3 6 -10 10 -16 10 -5
0 -9 -4 -9 -10z"/>
<path d="M496 1704 c-9 -23 -7 -114 2 -114 17 0 28 38 24 83 -4 47 -15 60 -26
31z"/>
<path d="M340 1636 c0 -33 2 -37 15 -26 19 15 19 21 0 46 -13 18 -14 16 -15
-20z"/>
<path d="M736 1634 c-9 -22 -7 -67 3 -82 6 -10 15 -6 38 17 17 16 46 33 66 36
45 9 47 20 6 34 -48 17 -106 14 -113 -5z"/>
<path d="M1210 1620 c0 -11 5 -20 10 -20 6 0 10 9 10 20 0 11 -4 20 -10 20 -5
0 -10 -9 -10 -20z"/>
<path d="M559 1534 l-12 -46 -12 28 c-12 28 -12 29 -19 7 -4 -13 -11 -23 -16
-23 -5 0 -11 -13 -15 -29 -5 -24 -1 -36 22 -61 l28 -32 6 43 c5 37 6 33 7 -28
2 -70 3 -73 26 -73 13 0 26 -7 30 -15 14 -37 26 -11 26 57 l0 71 -20 -23 -20
-23 0 96 c0 106 -12 126 -31 51z"/>
<path d="M344 1526 c-8 -22 3 -49 19 -43 6 2 12 14 12 27 0 27 -22 39 -31 16z"/>
<path d="M487 1349 c7 -7 15 -10 18 -7 3 3 -2 9 -12 12 -14 6 -15 5 -6 -5z"/>
<path d="M550 898 c0 -11 8 -18 20 -18 11 0 20 7 20 15 0 8 -4 15 -10 15 -5 0
-10 -6 -10 -12 0 -9 -4 -8 -10 2 -8 13 -10 12 -10 -2z"/>
<path d="M495 880 c3 -5 8 -10 11 -10 2 0 4 5 4 10 0 6 -5 10 -11 10 -5 0 -7
-4 -4 -10z"/>
<path d="M1536 859 c-14 -17 -26 -34 -26 -38 0 -4 -9 -17 -21 -30 -19 -21 -22
-21 -45 -7 -33 23 -142 22 -151 0 -10 -27 25 -44 90 -44 69 0 68 2 22 -109
-33 -78 -29 -122 17 -196 41 -65 108 -139 108 -119 0 18 -26 51 -68 86 -13 10
-19 26 -18 42 2 14 0 23 -5 20 -28 -17 -39 95 -16 150 10 21 17 47 17 56 0 10
3 20 8 22 15 6 72 92 72 108 0 9 11 26 25 38 14 12 25 29 25 37 0 21 -5 19
-34 -16z"/>
<path d="M1220 861 c0 -14 41 -41 62 -41 23 0 32 18 18 35 -14 16 -80 21 -80
6z"/>
<path d="M3088 854 c-8 -8 27 -67 54 -90 19 -17 18 -13 -6 31 -34 59 -40 67
-48 59z"/>
<path d="M164 815 c0 -14 7 -25 13 -25 7 0 12 11 11 25 -3 33 -26 33 -24 0z"/>
<path d="M1525 779 c-4 -6 -5 -12 -2 -15 2 -3 7 2 10 11 7 17 1 20 -8 4z"/>
<path d="M4332 661 c-9 -5 -1 -10 24 -14 34 -6 54 -3 43 7 -11 9 -56 14 -67 7z"/>
<path d="M4410 650 c0 -5 4 -10 9 -10 6 0 13 5 16 10 3 6 -1 10 -9 10 -9 0
-16 -4 -16 -10z"/>
<path d="M1940 633 c-8 -3 -17 -9 -20 -13 -5 -8 -113 -60 -123 -60 -9 0 -101
-63 -109 -74 -4 -6 -15 -36 -24 -66 -22 -72 -21 -140 1 -156 9 -7 14 -17 10
-23 -4 -7 1 -8 12 -4 16 6 16 5 4 -10 -11 -14 -61 -34 -96 -38 -5 0 -15 -5
-20 -9 -6 -5 -19 -8 -30 -6 -11 2 -26 -3 -33 -11 -8 -7 -18 -11 -23 -7 -12 7
6 25 51 50 45 24 50 32 40 60 -5 12 -7 24 -5 26 2 2 -5 4 -15 5 -21 2 -27 -12
-10 -22 16 -10 12 -33 -7 -39 -28 -10 -93 -72 -93 -90 0 -18 27 -21 62 -6 13
5 61 20 108 34 47 14 91 30 99 35 17 11 5 51 -15 51 -8 0 -19 12 -25 28 -14
34 6 153 29 182 10 11 67 45 127 76 61 31 118 63 127 71 9 8 22 12 27 8 6 -3
11 -1 11 4 0 12 -34 13 -60 4z"/>
<path d="M2567 634 c-4 -4 14 -14 40 -21 115 -31 204 -60 213 -69 5 -5 2 -36
-8 -79 -13 -55 -21 -70 -37 -73 -39 -6 -66 -25 -63 -45 3 -18 14 -19 156 -22
174 -3 206 2 210 32 3 18 -7 25 -67 44 -39 13 -71 26 -71 29 0 4 21 22 48 40
61 44 157 138 148 147 -3 3 -16 -3 -29 -15 -13 -12 -29 -22 -36 -22 -7 0 -10
-4 -7 -8 6 -10 -63 -68 -76 -64 -4 1 -8 -5 -8 -15 0 -9 -3 -14 -6 -10 -9 9
-95 -63 -88 -74 3 -5 22 -9 42 -9 24 0 32 -3 24 -9 -9 -5 5 -10 39 -14 93 -11
74 -29 -31 -30 -66 0 -200 5 -200 9 0 2 13 10 30 19 22 11 31 24 35 53 4 20 9
44 12 52 3 8 5 23 4 33 -1 9 3 17 8 17 6 0 11 5 11 11 0 5 -5 7 -12 3 -8 -5
-9 -2 -5 9 5 13 -3 19 -31 26 -20 6 -58 16 -84 23 -30 7 -43 15 -35 20 7 5 3
8 -13 7 -14 0 -43 3 -65 6 -22 4 -43 3 -48 -1z"/>
<path d="M2093 613 c9 -2 23 -2 30 0 6 3 -1 5 -18 5 -16 0 -22 -2 -12 -5z"/>
</g>
</svg>
