<?xml version="1.0" standalone="no"?>
<!DOCTYPE svg PUBLIC "-//W3C//DTD SVG 20010904//EN"
 "http://www.w3.org/TR/2001/REC-SVG-20010904/DTD/svg10.dtd">
<svg version="1.0" xmlns="http://www.w3.org/2000/svg"
 viewBox="0 0 512 512"
 preserveAspectRatio="xMidYMid meet">

<g transform="translate(0.000000,700.000000) scale(0.100000,-0.100000)"
fill="#000000" stroke="none">
<path d="M6930 6972 c0 -19 -13 -43 -40 -73 -22 -24 -47 -60 -57 -79 -10 -19
-21 -37 -24 -40 -16 -13 -30 -80 -20 -98 16 -30 171 -164 198 -170 11 -3 13
42 13 242 l0 246 -35 0 c-32 0 -35 -3 -35 -28z"/>
<path d="M237 6945 c-4 -8 -2 -17 3 -20 6 -4 10 3 10 14 0 25 -6 27 -13 6z"/>
<path d="M236 6847 c3 -10 9 -15 12 -12 3 3 0 11 -7 18 -10 9 -11 8 -5 -6z"/>
<path d="M241 6778 c1 -7 -1 -21 -5 -30 -10 -22 0 -52 14 -43 13 8 13 85 0 85
-6 0 -10 -6 -9 -12z"/>
<path d="M241 6434 c0 -70 2 -84 10 -64 11 25 7 136 -5 147 -3 4 -6 -34 -5
-83z"/>
<path d="M238 6033 c-2 -16 -1 -45 1 -67 5 -55 21 -24 21 42 0 54 -16 73 -22
25z"/>
<path d="M6870 5743 c-41 -2 -82 -6 -90 -10 -8 -4 -20 -7 -25 -8 -19 -1 -59
-39 -78 -73 -35 -63 -110 -280 -187 -547 -9 -33 -60 -241 -110 -455 -41 -172
-70 -259 -113 -329 -53 -87 -60 -114 -54 -188 6 -78 -1 -100 -49 -158 -30 -37
-37 -57 -49 -127 -7 -46 -18 -95 -24 -109 -12 -32 -4 -69 17 -86 9 -7 35 -13
58 -13 70 0 76 -24 40 -170 -33 -135 -66 -302 -61 -310 3 -5 1 -10 -4 -12 -12
-4 -89 -283 -116 -418 -12 -62 -14 -73 -19 -88 -3 -9 -8 -33 -10 -52 -3 -19
-12 -71 -21 -115 -9 -44 -18 -107 -21 -140 -3 -33 -10 -75 -15 -92 -6 -18 -11
-56 -12 -85 -2 -51 -2 -52 -52 -79 -68 -36 -138 -108 -202 -206 -29 -46 -53
-85 -53 -87 0 -3 -20 -34 -45 -69 -25 -36 -45 -68 -45 -71 0 -6 -29 -50 -57
-85 -7 -9 -19 -25 -27 -36 -10 -14 -24 -18 -55 -17 -32 2 -39 0 -35 -11 3 -9
13 -13 24 -10 14 4 21 -2 26 -22 4 -15 3 -30 -3 -34 -11 -7 -53 -79 -90 -153
-14 -29 -29 -55 -32 -58 -3 -3 -21 -35 -39 -71 l-33 -67 -124 2 c-75 0 -127
-3 -129 -9 -3 -5 -5 -4 -5 3 -1 7 -6 10 -13 6 -14 -9 -97 -8 -120 1 -11 5 -18
3 -18 -5 0 -9 -3 -10 -13 -1 -8 6 -17 8 -21 4 -4 -4 -11 -1 -16 7 -7 11 -10
12 -10 2 0 -7 -5 -10 -10 -7 -17 11 -89 14 -95 5 -3 -6 -15 -6 -29 0 -13 5
-27 6 -30 2 -4 -3 -50 -7 -102 -9 -95 -3 -95 -3 -88 20 4 12 20 36 36 52 48
48 98 166 113 265 4 25 12 51 18 58 7 9 7 19 -1 35 -6 12 -13 38 -15 57 -3 19
-16 91 -30 160 -14 69 -29 147 -33 175 -4 27 -19 89 -35 137 -35 112 -31 129
42 167 101 52 179 127 179 172 0 40 -25 138 -67 265 -18 55 -33 103 -33 107 0
3 7 13 16 22 15 14 19 14 47 -4 34 -20 70 -32 159 -51 46 -11 69 -10 118 0 33
7 63 17 66 21 3 5 12 9 21 9 30 0 109 69 156 138 61 90 89 165 104 286 7 60
-27 180 -71 246 -40 60 -150 170 -170 170 -9 0 -16 5 -16 10 0 6 -7 10 -15 10
-23 0 -35 34 -35 107 -1 65 -5 104 -30 286 -22 157 -114 411 -190 518 -33 49
-47 69 -68 100 -21 32 -92 117 -147 174 -36 39 -187 135 -275 176 -19 10 -66
33 -105 52 -38 19 -97 42 -130 52 -33 9 -65 21 -70 25 -11 9 -248 70 -272 70
-8 0 -39 16 -69 36 -59 39 -129 54 -167 36 -12 -5 -51 -18 -87 -27 -36 -9 -69
-21 -75 -25 -5 -4 -24 -11 -42 -15 -17 -3 -49 -19 -70 -34 -21 -15 -45 -30
-55 -33 -9 -4 -56 -33 -105 -64 -82 -54 -300 -260 -370 -351 -28 -37 -80 -60
-155 -68 -59 -7 -103 -23 -253 -90 -85 -38 -268 -223 -312 -315 -59 -122 -81
-288 -63 -464 14 -133 49 -215 135 -315 62 -72 200 -201 231 -216 37 -17 58
-40 50 -54 -4 -6 -46 -34 -94 -62 -92 -55 -131 -83 -172 -124 -58 -56 -59 -60
-34 -154 8 -34 17 -69 19 -78 19 -79 28 -109 46 -160 11 -32 29 -77 40 -100
10 -24 19 -47 19 -53 0 -5 5 -10 10 -10 6 0 10 -7 10 -15 0 -20 59 -85 77 -85
8 0 35 14 59 31 25 17 48 28 52 25 6 -7 9 -78 14 -353 1 -89 0 -164 -2 -166
-6 -6 -109 -16 -167 -16 -54 -1 -62 -23 -31 -88 12 -26 24 -50 27 -53 8 -7 25
-37 62 -111 41 -80 35 -92 -38 -84 -70 7 -402 7 -414 -1 -5 -3 -9 -1 -9 3 0 5
-36 9 -80 10 -44 0 -80 -3 -80 -8 0 -5 6 -9 13 -10 6 0 35 -3 62 -6 28 -2 127
-4 220 -4 94 1 175 1 180 0 6 0 48 -2 95 -4 90 -3 120 -10 120 -29 0 -13 105
-223 138 -276 12 -19 22 -47 22 -61 l0 -26 -488 -2 c-268 -1 -521 -2 -562 -2
-84 -1 -307 -1 -450 -1 -52 0 -160 0 -240 0 -202 0 -260 -2 -260 -8 0 -3 -18
-5 -40 -5 -22 0 -40 2 -40 5 0 3 -17 5 -38 6 -20 0 -55 2 -77 3 -22 2 -79 3
-127 2 -77 -1 -88 -3 -88 -18 0 -20 61 -24 395 -21 182 1 240 1 485 1 74 -1
182 0 240 0 58 1 130 0 160 -1 30 -1 177 0 325 3 222 4 518 5 610 3 11 0 65 1
120 2 83 1 101 -1 111 -15 18 -24 3 -56 -37 -78 -19 -11 -35 -18 -37 -17 -1 1
-43 -8 -94 -20 -98 -23 -215 -66 -236 -87 -30 -29 8 -65 83 -77 17 -3 41 -7
55 -10 14 -2 63 -7 110 -11 85 -7 104 -8 190 -20 25 -3 81 -8 125 -11 80 -5
110 -17 101 -40 -4 -11 141 -187 162 -196 5 -1 32 -30 61 -63 29 -33 72 -82
97 -110 119 -136 121 -138 116 -161 -2 -13 -8 -24 -12 -24 -5 0 -32 -16 -61
-35 -30 -19 -58 -35 -64 -35 -6 0 -25 -14 -43 -30 -18 -17 -28 -30 -21 -30 24
0 177 80 217 113 35 30 39 36 29 54 -16 27 -71 103 -92 126 -22 24 -7 48 48
76 57 29 82 18 98 -42 5 -23 17 -51 25 -61 13 -19 14 -19 34 -1 11 10 20 22
20 27 0 14 71 121 89 135 25 19 49 15 62 -9 8 -16 10 -58 5 -148 -11 -192 -12
-260 -4 -260 15 0 31 175 31 338 0 115 -5 125 -59 118 -37 -4 -53 -13 -76 -41
-67 -80 -82 -95 -90 -87 -10 10 -88 212 -88 229 0 24 61 133 81 144 14 7 43 6
104 -6 46 -8 87 -15 92 -14 9 3 64 -7 138 -23 28 -6 64 -12 80 -13 17 -2 50
-6 75 -9 30 -4 50 -2 61 6 18 15 65 113 99 205 27 76 45 93 102 96 24 2 48 6
53 9 6 3 29 9 53 13 23 4 42 11 42 16 0 5 7 9 16 9 9 0 38 11 65 24 46 24 57
25 256 26 114 1 311 1 436 0 252 -2 252 -2 224 -63 -63 -138 -163 -456 -165
-527 -1 -8 -6 -35 -12 -60 -49 -193 -35 -253 80 -324 73 -46 400 -101 400 -67
0 7 -17 11 -42 10 -24 -1 -65 4 -93 11 -58 14 -70 16 -145 26 -31 4 -63 15
-75 26 -11 11 -39 34 -62 51 -69 53 -75 82 -43 212 12 44 27 118 35 165 14 90
53 216 111 365 57 144 303 625 325 633 5 2 9 7 9 12 0 19 216 350 285 436 49
62 113 102 181 115 60 11 154 8 154 -5 0 -4 9 -6 20 -3 11 3 20 1 20 -5 0 -5
8 -8 18 -7 9 1 30 -3 45 -9 32 -14 86 -16 71 -4 -11 11 -68 27 -161 47 -91 19
-138 41 -151 71 -11 22 25 255 74 489 151 723 212 950 257 968 8 3 48 1 88 -5
41 -5 81 -10 89 -10 8 -1 18 -6 22 -12 5 -8 8 -7 8 1 0 9 7 10 23 4 24 -9 108
-23 140 -22 9 0 17 -5 17 -10 0 -6 4 -8 8 -5 14 9 286 -35 294 -47 5 -8 8 -4
8 10 0 27 -15 33 -135 53 -33 5 -69 12 -80 14 -32 6 -106 16 -160 21 -72 7
-103 12 -113 19 -5 3 -36 8 -68 11 -87 9 -146 19 -236 37 -75 16 -79 27 -57
144 19 99 24 111 77 191 29 43 33 58 28 88 -3 19 -8 50 -11 68 -4 23 1 44 20
77 59 105 105 217 129 315 10 39 21 86 26 105 5 19 14 60 20 90 17 79 70 294
90 365 10 33 26 87 35 120 20 71 90 291 112 353 9 23 20 42 24 42 5 0 9 6 9
14 0 40 102 69 241 68 42 -1 49 2 49 19 0 15 -6 19 -27 17 -16 -1 -62 -3 -103
-5z m-3463 -734 c6 -13 28 -69 48 -124 39 -105 85 -165 125 -165 30 0 76 26
85 47 3 10 9 48 12 85 8 92 11 96 70 76 229 -79 315 -116 311 -137 -2 -9 -27
-27 -56 -41 -78 -37 -116 -114 -77 -154 19 -19 75 -30 117 -23 18 3 78 13 133
22 160 27 170 28 181 13 11 -13 32 -82 41 -127 2 -13 13 -44 23 -67 11 -24 20
-48 20 -53 0 -19 54 -89 77 -100 13 -6 31 -8 40 -4 25 8 73 54 73 69 0 6 6 17
14 23 18 15 24 -32 29 -227 5 -152 -1 -168 -57 -156 -86 18 -206 104 -193 138
6 15 17 17 64 14 49 -2 58 0 61 15 2 10 0 17 -5 16 -15 -4 -108 13 -126 23
-10 5 -25 26 -33 46 -40 100 -91 167 -142 189 -48 20 -302 21 -302 1 0 -4 -8
-8 -18 -8 -37 0 -172 -88 -172 -112 0 -22 81 7 128 44 6 6 12 7 12 2 0 -5 4
-4 8 1 33 46 173 66 277 40 109 -28 155 -104 182 -300 17 -123 28 -148 48
-102 12 26 31 29 65 7 14 -9 39 -22 55 -30 34 -15 30 -14 70 -25 17 -4 43 -14
59 -22 l28 -15 -6 -141 c-3 -78 -9 -156 -12 -173 -3 -19 -28 -56 -60 -90 -53
-59 -66 -84 -41 -84 12 0 36 17 106 77 14 13 31 23 38 23 6 0 18 6 26 14 20
20 94 43 150 45 87 4 192 -67 263 -176 19 -29 37 -67 41 -85 3 -18 9 -37 13
-43 18 -24 17 -93 -2 -160 -83 -291 -291 -401 -551 -290 -43 18 -79 54 -103
102 -26 53 -56 56 -414 49 -326 -6 -631 -7 -735 -2 -72 3 -273 23 -320 31 -21
4 -110 17 -135 19 -8 1 -23 7 -33 12 -16 9 -11 17 43 67 33 31 60 59 60 62 0
2 16 30 36 62 67 104 66 186 -4 241 -35 28 -41 29 -124 27 -77 -2 -97 -7 -160
-38 -107 -51 -168 -115 -228 -236 -17 -34 -34 -61 -39 -61 -5 0 -42 14 -82 31
-41 16 -79 31 -85 33 -13 2 -140 80 -182 111 -39 29 -112 103 -152 155 -19 25
-37 47 -41 50 -10 8 -37 72 -54 130 -9 30 -20 62 -23 70 -16 41 -17 253 -2
310 25 94 50 161 74 199 14 22 26 43 26 47 0 3 6 11 13 18 6 7 34 36 60 64
122 132 244 195 476 248 41 9 82 21 91 27 37 23 120 -31 123 -81 1 -15 6 -30
11 -34 5 -3 40 25 77 63 37 38 70 69 74 69 4 0 19 9 34 19 59 42 131 62 226
60 100 -1 159 -20 208 -67 36 -34 49 -61 72 -145 20 -79 39 -84 41 -10 1 28 9
61 19 76 21 32 14 76 -21 129 -13 21 -24 42 -24 47 0 9 -23 21 -41 21 -15 0
-11 -16 20 -80 16 -33 26 -60 21 -60 -4 0 -24 18 -44 40 -20 22 -62 55 -94 72
-49 27 -69 32 -139 34 -80 3 -180 -19 -207 -46 -6 -6 -18 -10 -28 -10 -10 0
-18 -3 -18 -8 0 -12 -56 -33 -73 -27 -15 6 -24 26 -45 91 -8 25 -7 37 6 56 30
42 56 69 90 90 l34 21 28 -22 c34 -25 94 -28 142 -7 18 8 53 22 78 31 79 30
84 32 140 58 63 30 71 29 87 -4z m-624 -285 c13 -41 14 -60 7 -75 -14 -25 -22
-24 -59 7 -35 30 -40 63 -13 99 28 39 45 31 65 -31z m-440 -1776 c34 -24 86
-79 87 -90 0 -11 39 -55 90 -103 131 -123 176 -163 190 -167 8 -3 28 9 44 26
142 154 189 195 230 198 14 1 56 -13 93 -32 37 -18 78 -38 90 -43 31 -14 38
-43 19 -72 -21 -31 -32 -31 -79 0 -20 14 -37 22 -37 18 0 -4 -4 -2 -9 6 -8 12
-14 12 -44 0 -55 -22 -95 -58 -132 -120 -55 -90 -55 -91 80 -234 31 -33 70
-80 88 -105 17 -25 35 -48 39 -51 5 -3 11 -21 14 -40 4 -26 1 -39 -16 -56 -37
-40 -62 -30 -116 44 -27 37 -49 69 -49 72 0 6 -44 66 -75 103 -22 27 -43 23
-38 -7 9 -43 -16 -29 -51 28 -43 71 -93 99 -214 123 -12 2 -33 8 -47 14 -14 5
-59 18 -100 29 -41 10 -104 28 -140 39 -76 24 -122 36 -132 34 -14 -3 -30 40
-23 66 9 36 144 310 162 327 20 21 40 19 76 -7z m1239 -216 c25 -27 51 -59 58
-71 13 -25 44 -134 54 -192 6 -33 35 -75 37 -53 2 27 11 59 17 65 4 4 52 9
107 12 l100 5 40 44 c49 53 137 156 146 170 4 6 29 13 56 15 37 4 52 1 62 -11
7 -9 18 -16 24 -16 14 0 45 -38 68 -82 38 -75 79 -191 74 -209 -3 -10 -38 -39
-78 -65 -39 -26 -76 -51 -82 -56 -19 -16 -217 -138 -224 -138 -3 0 -23 -9 -44
-20 -65 -35 -87 -26 -260 116 -10 8 -31 17 -47 21 -26 5 -37 -2 -90 -53 -34
-33 -66 -61 -71 -63 -6 -2 -17 6 -25 18 -8 12 -18 21 -22 21 -4 0 -36 -28 -72
-61 -76 -71 -111 -91 -148 -87 -21 2 -26 8 -25 26 3 26 74 98 142 145 25 17
57 41 71 54 14 13 28 23 32 23 11 0 58 49 58 60 0 6 4 10 9 10 15 0 33 106 27
151 -7 48 -67 126 -119 154 -33 17 -41 18 -107 5 -68 -13 -73 -13 -86 5 -36
49 7 77 141 94 129 16 128 16 177 -37z m-72 -602 c0 -5 -4 -10 -10 -10 -5 0
-10 5 -10 10 0 6 5 10 10 10 6 0 10 -4 10 -10z m-786 -259 c43 -20 82 -37 156
-66 25 -10 63 -26 85 -36 22 -9 85 -35 140 -58 55 -23 118 -50 140 -60 71 -33
129 -58 180 -76 28 -10 55 -22 60 -26 6 -4 28 -12 50 -18 35 -9 42 -8 62 11
29 27 60 33 359 67 50 6 97 13 105 15 8 3 43 7 79 10 36 3 88 10 116 15 70 14
212 17 223 5 14 -15 31 -99 31 -151 0 -99 -51 -247 -105 -308 -15 -16 -32 -37
-39 -45 -16 -22 -92 -80 -105 -80 -6 0 -27 -10 -48 -21 -105 -59 -205 -68
-403 -36 -52 9 -126 19 -165 22 -38 4 -81 9 -95 11 -14 2 -65 10 -115 18 -49
7 -97 14 -105 14 -13 0 -100 18 -180 36 -14 3 -45 9 -70 12 -25 3 -48 8 -52
10 -4 3 -25 7 -48 10 -49 7 -60 9 -80 16 -8 3 -40 11 -70 18 -108 24 -110 29
-153 340 -27 193 -39 334 -30 357 7 18 29 16 77 -6z m-394 -75 c19 -3 59 -8
89 -12 30 -4 66 -8 80 -8 40 -3 99 -25 105 -41 3 -8 13 -64 21 -125 16 -107
16 -110 -3 -137 -17 -24 -26 -76 -32 -177 0 -5 -43 -6 -96 -3 -111 6 -119 11
-163 101 -17 33 -44 84 -61 111 -16 28 -34 60 -40 73 -5 13 -21 48 -35 78 -14
30 -25 59 -25 64 0 6 -4 10 -8 10 -4 0 -15 13 -25 29 -13 22 -14 31 -4 39 21
17 39 18 101 10 34 -4 77 -10 96 -12z m335 -423 c20 -123 48 -182 97 -201 21
-7 28 -7 28 1 0 9 2 9 8 1 4 -6 16 -13 27 -16 11 -3 56 -16 100 -28 44 -12 96
-24 115 -27 19 -3 69 -11 110 -19 41 -8 102 -19 135 -24 66 -11 249 -37 385
-55 248 -34 248 -34 230 -118 -6 -31 -21 -71 -33 -89 -12 -19 -31 -50 -41 -71
-23 -44 -53 -53 -141 -39 -43 7 -62 7 -67 -2 -6 -8 -8 -8 -8 0 0 11 -93 30
-190 40 -25 3 -78 11 -119 20 -40 8 -76 13 -78 10 -2 -2 -32 3 -66 11 -34 7
-84 16 -112 19 -98 10 -170 22 -215 36 -31 10 -82 48 -148 111 -27 27 -44 82
-48 162 -2 53 -6 288 -5 308 1 4 8 7 16 7 9 0 16 -14 20 -37z m-76 -127 c5 -6
12 -45 15 -86 15 -180 27 -224 69 -251 44 -29 102 -104 102 -132 0 -20 -5 -22
-55 -22 -67 -1 -406 27 -489 40 -13 3 -45 7 -70 11 -61 9 -79 33 -40 54 22 12
216 63 281 74 43 8 88 57 88 97 0 13 -18 60 -40 104 -44 88 -45 96 -28 113 16
16 154 14 167 -2z m391 -485 c36 -6 76 -13 90 -16 14 -3 41 -8 60 -11 44 -7
70 -21 70 -37 0 -7 -11 -32 -25 -56 -28 -49 -30 -68 -13 -141 11 -50 11 -52
-18 -80 -28 -28 -114 -57 -114 -39 0 5 -7 9 -15 9 -8 0 -15 4 -15 9 0 4 -23
32 -50 62 -62 66 -148 163 -166 186 -21 28 -17 42 29 88 46 48 42 47 167 26z"/>
<path d="M4019 4525 c-3 -2 -16 -5 -29 -7 -72 -11 -125 -47 -102 -70 10 -10
62 0 62 12 0 4 29 13 65 20 61 12 85 24 71 37 -7 7 -62 14 -67 8z"/>
<path d="M3155 4502 c-11 -5 -27 -8 -35 -7 -8 0 -18 -3 -21 -8 -3 -5 -12 -9
-20 -11 -26 -4 -85 -49 -114 -87 -48 -65 -70 -161 -46 -207 5 -9 15 -32 21
-49 14 -37 83 -114 118 -132 74 -39 219 -29 302 20 8 5 24 13 35 18 66 29 128
134 129 218 1 42 -5 59 -31 97 -18 26 -33 49 -33 52 0 9 -44 43 -56 44 -6 0
-19 9 -28 19 -9 10 -32 22 -49 26 -52 11 -151 15 -172 7z m121 -209 c52 -34
48 -88 -9 -115 -29 -13 -35 -13 -61 1 -55 31 -52 91 6 116 41 18 34 18 64 -2z"/>
<path d="M3862 4275 c-17 -6 -37 -16 -44 -23 -7 -7 -17 -12 -24 -12 -20 0
-135 -121 -151 -158 -16 -39 -11 -124 10 -165 37 -72 87 -114 187 -157 20 -8
145 -5 190 4 52 12 134 53 163 82 47 47 60 89 55 179 -4 64 -11 90 -30 121
-64 99 -129 137 -243 139 -44 1 -95 -3 -113 -10z m84 -211 c61 -29 52 -94 -19
-134 -24 -13 -28 -13 -54 6 -39 29 -42 72 -8 113 31 36 35 37 81 15z"/>
<path d="M248 5645 c2 -14 6 -25 8 -25 2 0 4 11 4 25 0 14 -4 25 -9 25 -4 0
-6 -11 -3 -25z"/>
<path d="M244 5525 c-1 -41 2 -72 7 -70 4 3 8 13 8 23 1 9 2 41 4 70 2 32 -1
52 -7 52 -7 0 -11 -30 -12 -75z"/>
<path d="M246 5167 c-3 -12 -5 -51 -4 -87 0 -36 3 -53 5 -37 2 15 8 27 12 27
11 0 14 107 3 114 -6 3 -12 -4 -16 -17z"/>
<path d="M247 4849 c4 -13 8 -18 11 -10 2 7 -1 18 -6 23 -8 8 -9 4 -5 -13z"/>
<path d="M248 4778 c-3 -7 -4 -28 -4 -45 1 -49 21 -35 21 14 0 42 -8 56 -17
31z"/>
<path d="M240 4671 c0 -5 5 -13 10 -16 6 -3 10 -2 10 4 0 5 -4 13 -10 16 -5 3
-10 2 -10 -4z"/>
<path d="M246 4613 c-6 -14 -5 -15 5 -6 7 7 10 15 7 18 -3 3 -9 -2 -12 -12z"/>
<path d="M250 4420 c0 -14 -3 -55 -7 -92 -4 -48 -3 -68 6 -68 6 0 11 7 11 15
0 8 5 15 11 15 5 0 8 4 5 8 -3 5 -6 34 -7 65 -2 57 -18 106 -19 57z"/>
<path d="M247 4180 c3 -11 7 -20 9 -20 2 0 4 9 4 20 0 11 -4 20 -9 20 -5 0 -7
-9 -4 -20z"/>
<path d="M251 4028 c0 -29 -3 -78 -7 -109 -4 -35 -2 -59 4 -63 14 -9 24 58 20
144 -3 83 -19 108 -17 28z"/>
<path d="M240 3833 c0 -4 5 -15 10 -23 8 -13 10 -13 10 2 0 9 -4 20 -10 23 -5
3 -10 3 -10 -2z"/>
<path d="M251 3654 c0 -11 3 -14 6 -6 3 7 2 16 -1 19 -3 4 -6 -2 -5 -13z"/>
<path d="M243 3490 c0 -44 3 -83 8 -86 5 -3 9 -4 10 -2 0 2 3 40 6 86 4 68 3
82 -9 82 -12 0 -15 -17 -15 -80z"/>
<path d="M6982 3235 c-7 -27 -24 -86 -37 -130 -39 -132 -106 -367 -116 -410
-42 -180 -53 -195 -98 -130 -13 19 -42 55 -65 80 -41 44 -42 44 -99 40 -32 -2
-55 0 -52 4 4 8 -28 7 -175 -2 -19 -1 -42 -7 -50 -12 -22 -14 34 -23 85 -13
50 9 172 10 214 2 27 -6 48 -28 129 -141 108 -150 138 -191 152 -213 58 -89
89 -125 108 -128 18 -3 22 1 22 22 0 14 -6 26 -13 26 -14 0 -26 13 -78 85 -55
76 -89 139 -89 165 0 30 36 181 71 300 15 52 33 118 40 145 6 28 25 94 41 147
21 70 28 112 26 155 l-3 58 -13 -50z"/>
<path d="M256 3165 c-10 -27 -7 -193 4 -200 6 -4 10 5 10 22 0 15 -1 64 -1
107 1 83 -2 98 -13 71z"/>
<path d="M250 2935 c0 -8 5 -15 10 -15 6 0 10 7 10 15 0 8 -4 15 -10 15 -5 0
-10 -7 -10 -15z"/>
<path d="M254 2842 c-1 -20 -2 -62 -4 -92 -4 -85 -1 -140 8 -140 10 0 15 72
13 180 -2 77 -15 118 -17 52z"/>
<path d="M250 2535 c0 -8 2 -15 4 -15 2 0 6 7 10 15 3 8 1 15 -4 15 -6 0 -10
-7 -10 -15z"/>
<path d="M248 2413 c-1 -59 -1 -146 1 -196 1 -39 22 -24 21 16 0 18 2 68 5
113 2 44 2 90 -2 102 -10 41 -23 22 -25 -35z"/>
<path d="M255 2015 c-4 -31 -7 -72 -7 -93 0 -112 5 -162 15 -171 9 -7 12 31
13 155 1 164 -8 213 -21 109z"/>
<path d="M6320 2019 c0 -5 8 -9 18 -9 10 0 42 -9 72 -19 30 -10 78 -22 105
-26 28 -3 68 -11 90 -16 22 -6 49 -12 60 -14 206 -39 252 -51 258 -69 6 -16
-1 -30 -84 -153 -79 -117 -120 -214 -127 -303 -2 -36 -9 -73 -14 -83 -9 -17
-12 -17 -45 9 -37 28 -63 29 -195 6 -57 -10 -96 5 -120 46 -9 15 -40 58 -70
96 -55 71 -108 109 -137 98 -13 -6 -12 -7 6 -10 18 -3 77 -59 112 -107 65 -90
91 -122 105 -134 16 -13 75 -16 146 -5 109 16 103 16 141 -18 19 -18 52 -55
71 -83 56 -77 81 -97 119 -93 39 4 47 20 17 33 -22 10 -23 14 -21 150 l1 140
40 90 c22 50 61 121 86 160 l46 69 0 98 c0 61 -4 98 -10 98 -6 0 -13 -7 -17
-16 -12 -32 -60 -34 -183 -10 -78 15 -160 29 -200 32 -25 3 -58 9 -75 14 -16
5 -43 11 -60 13 -16 3 -41 8 -55 11 -53 12 -80 14 -80 5z m620 -269 c0 -5 -4
-10 -8 -10 -4 0 -16 -13 -25 -30 -19 -31 -37 -40 -37 -18 0 13 49 66 63 67 4
1 7 -3 7 -9z m-75 -97 c-4 -10 -10 -26 -12 -35 -3 -10 -9 -15 -14 -12 -5 3 -9
-4 -9 -16 0 -12 -4 -18 -10 -15 -12 8 -4 39 18 73 17 26 37 30 27 5z m-59
-125 c-11 -6 -15 -16 -11 -28 3 -10 1 -21 -5 -25 -6 -3 -8 -11 -5 -16 4 -5 1
-9 -4 -9 -18 0 -12 46 10 74 11 14 15 26 9 26 -6 0 -8 5 -4 11 4 8 10 6 17 -6
7 -13 5 -20 -7 -27z m-16 -110 c0 -13 -23 -5 -28 10 -2 7 2 10 12 6 9 -3 16
-11 16 -16z m-17 -14 c12 -4 13 -12 6 -36 -4 -17 -8 -33 -7 -37 3 -30 -4 -71
-12 -66 -14 9 -12 99 2 113 10 10 10 15 -2 22 -17 11 -9 13 13 4z"/>
<path d="M253 1704 c3 -5 2 -49 -2 -99 -4 -49 -6 -95 -4 -102 3 -8 113 -10
436 -7 238 3 450 4 472 4 204 -2 389 0 393 5 3 3 0 11 -6 17 -9 9 -12 9 -12
-3 0 -12 -2 -12 -10 1 -9 13 -10 13 -10 0 0 -13 -1 -13 -11 0 -6 9 -12 11 -15
5 -4 -11 -112 -11 -256 -1 -43 2 -78 2 -78 -2 0 -10 -376 -8 -421 2 -20 4 -39
4 -42 -1 -3 -5 -35 -6 -71 -3 -36 3 -66 3 -66 -1 0 -3 -53 -6 -118 -5 -147 1
-150 3 -154 112 -2 55 -7 79 -17 82 -8 3 -11 1 -8 -4z"/>
<path d="M5976 1583 c-17 -18 -6 -19 123 -14 8 1 11 4 7 8 -9 9 -121 14 -130
6z"/>
<path d="M5898 1573 c7 -3 16 -2 19 1 4 3 -2 6 -13 5 -11 0 -14 -3 -6 -6z"/>
<path d="M4595 1503 c11 -3 24 -10 28 -17 6 -7 7 -6 4 4 -2 8 -14 16 -28 17
-19 1 -20 1 -4 -4z"/>
<path d="M4850 1502 c0 -6 -8 -13 -17 -15 -10 -3 0 -5 21 -6 22 0 37 0 35 2
-2 1 -12 9 -21 16 -11 8 -18 9 -18 3z"/>
<path d="M4900 1495 c0 -7 8 -12 17 -11 24 4 27 21 3 23 -11 1 -20 -4 -20 -12z"/>
<path d="M4950 1498 c0 -11 32 -10 50 2 11 8 7 10 -17 8 -18 -1 -33 -6 -33
-10z"/>
<path d="M5022 1504 c4 -4 29 -8 55 -10 26 -3 55 -7 63 -10 8 -4 25 -7 38 -6
65 1 71 2 66 16 -4 10 -32 14 -117 15 -61 1 -108 -1 -105 -5z"/>
<path d="M5269 1502 c11 -8 11 -10 0 -15 -10 -4 -8 -6 4 -6 21 -1 18 21 -4 27
-12 3 -12 2 0 -6z"/>
<path d="M4640 1492 c0 -5 7 -9 15 -9 8 0 12 4 9 9 -3 4 -9 8 -15 8 -5 0 -9
-4 -9 -8z"/>
<path d="M4688 1493 c7 -3 16 -2 19 1 4 3 -2 6 -13 5 -11 0 -14 -3 -6 -6z"/>
<path d="M5300 1490 c0 -5 9 -10 21 -10 11 0 17 5 14 10 -3 6 -13 10 -21 10
-8 0 -14 -4 -14 -10z"/>
<path d="M6900 1130 c14 -10 42 -29 63 -40 36 -21 37 -21 37 -1 0 25 -57 61
-96 61 l-29 0 25 -20z"/>
</g>
</svg>
