<?xml version="1.0" standalone="no"?>
<!DOCTYPE svg PUBLIC "-//W3C//DTD SVG 20010904//EN"
 "http://www.w3.org/TR/2001/REC-SVG-20010904/DTD/svg10.dtd">
<svg version="1.0" xmlns="http://www.w3.org/2000/svg"
 width="100px" height="100px" viewBox="0 0 555.000000 1200.000000"
 preserveAspectRatio="xMidYMid meet">

<g transform="translate(0.000000,1200.000000) scale(0.100000,-0.100000)"
fill="#000000" stroke="none">
<path d="M0 10604 c0 -1113 3 -1394 13 -1388 23 14 172 128 255 196 46 37 127
98 180 135 53 36 137 96 186 131 49 36 131 86 182 113 129 67 164 67 260 1
113 -78 298 -230 472 -390 169 -154 270 -212 372 -212 51 0 153 53 194 102 95
111 60 271 -109 498 -92 124 -364 399 -518 524 -60 49 -105 92 -100 97 10 10
228 43 418 64 534 57 505 55 900 55 209 -1 391 -2 405 -4 14 -2 77 -6 140 -10
195 -11 711 -59 843 -77 42 -6 77 -15 77 -19 0 -4 -37 -22 -82 -41 -134 -55
-304 -144 -412 -216 -122 -82 -325 -279 -379 -370 -50 -82 -73 -174 -58 -231
27 -97 112 -149 229 -139 83 7 253 70 372 137 47 26 149 79 226 118 78 39 212
114 298 167 190 116 210 119 284 52 150 -138 574 -411 814 -525 l77 -37 1
-209 0 -208 -54 50 c-224 204 -593 347 -988 382 -272 24 -598 -47 -845 -184
-160 -88 -368 -280 -462 -425 -45 -70 -95 -210 -80 -225 11 -12 9 -16 42 83
36 107 80 176 181 280 238 246 487 377 830 436 160 27 403 16 616 -30 251 -53
562 -206 708 -348 l52 -51 0 -566 0 -565 -232 0 c-212 0 -247 -3 -391 -28 -87
-16 -160 -27 -163 -25 -2 3 17 19 42 37 59 43 119 120 158 201 38 82 48 213
22 304 -51 176 -258 278 -643 316 -245 25 -596 -40 -815 -151 -134 -67 -288
-208 -383 -348 -79 -119 -99 -297 -43 -392 77 -132 290 -270 495 -321 114 -29
370 -32 473 -6 37 10 66 13 68 7 6 -16 16 -10 85 55 127 122 338 228 532 266
272 55 348 64 535 64 102 1 202 -3 223 -7 l37 -8 0 -2290 0 -2289 -22 5 c-21
4 -439 45 -613 60 -38 3 -207 12 -375 20 -290 13 -609 44 -694 67 l-40 10 90
46 c155 82 285 234 313 370 28 133 6 274 -53 347 -23 28 -51 29 -31 1 38 -52
48 -71 61 -118 49 -184 -37 -400 -208 -521 -174 -124 -355 -167 -783 -188
-340 -17 -552 -4 -689 42 -282 95 -496 297 -546 518 -25 108 12 252 90 350 62
76 56 96 -8 26 -69 -77 -112 -193 -112 -306 0 -113 64 -256 157 -351 26 -26
45 -49 42 -52 -4 -4 -458 -21 -889 -33 -291 -8 -815 26 -1130 72 -92 14 -113
13 -94 -4 19 -17 357 -55 686 -76 323 -21 754 -17 1243 9 l90 5 50 -62 c55
-67 151 -150 258 -222 82 -57 291 -164 367 -189 115 -38 276 -29 426 24 70 24
152 88 219 170 l55 67 63 7 c34 4 113 18 176 32 110 25 115 25 175 10 91 -24
356 -55 571 -66 105 -6 278 -15 385 -20 107 -6 260 -17 340 -25 80 -8 197 -19
260 -25 63 -6 127 -13 143 -16 l27 -6 0 -293 0 -294 -73 -143 c-240 -466 -396
-606 -697 -625 -111 -7 -141 2 -450 134 -283 121 -568 258 -690 333 -262 160
-788 540 -850 615 -22 27 -66 45 -108 45 -40 0 -49 -4 -292 -133 -69 -36 -258
-130 -420 -208 -269 -129 -377 -178 -603 -275 -44 -19 -111 -50 -150 -70 -169
-85 -405 -166 -544 -185 -120 -17 -203 -5 -295 43 -91 47 -246 173 -317 259
l-51 61 0 -86 c0 -76 3 -92 26 -129 173 -276 259 -396 402 -554 259 -287 612
-626 852 -818 95 -76 717 -497 1088 -738 l89 -57 577 0 c324 0 576 4 576 9 0
5 -7 14 -15 21 -26 21 -49 119 -48 205 1 165 62 252 241 344 183 93 372 126
597 102 198 -21 298 -59 398 -151 79 -72 108 -135 108 -235 0 -67 -4 -87 -31
-141 -19 -39 -50 -80 -81 -108 l-51 -46 411 0 411 0 0 6000 0 6000 -2775 0
-2775 0 0 -1396z m4320 -2444 c64 -36 83 -76 76 -167 l-4 -73 26 7 c43 12 88
8 116 -10 23 -15 26 -24 26 -70 0 -64 -23 -105 -82 -144 -61 -41 -113 -56
-185 -56 -81 1 -118 22 -109 64 7 36 -1 40 -50 28 -21 -5 -93 -13 -159 -18
-152 -12 -203 -2 -245 45 -26 30 -30 42 -30 92 0 126 123 255 300 314 43 14
80 17 165 15 96 -2 116 -6 155 -27z m-2106 -4763 c86 -59 216 -121 305 -146
127 -35 262 -44 564 -37 152 4 277 4 277 1 0 -4 -6 -12 -12 -20 -149 -158
-185 -181 -332 -212 -61 -12 -134 -23 -162 -23 -186 0 -588 226 -762 430 l-43
50 51 0 c44 0 60 -6 114 -43z m574 -589 c142 -122 372 -292 612 -453 251 -168
432 -267 740 -404 160 -72 150 -54 153 -276 2 -227 -31 -322 -153 -445 -88
-89 -238 -184 -357 -230 -26 -9 -85 -32 -131 -49 -51 -19 -132 -38 -215 -50
-275 -41 -375 -46 -942 -46 -600 0 -610 1 -800 62 -314 102 -586 327 -722 598
-48 96 -175 500 -160 511 1 1 34 12 72 24 102 33 265 99 302 121 18 11 88 44
155 73 282 122 388 171 687 315 173 83 367 180 431 215 216 121 226 122 328
34z"/>
<path d="M545 9214 c-143 -16 -239 -36 -357 -75 -121 -39 -188 -69 -188 -84 0
-8 28 -1 82 21 343 137 828 170 1146 78 239 -70 414 -175 616 -372 117 -114
187 -211 255 -352 40 -82 57 -109 59 -92 5 31 -87 212 -150 297 -66 89 -219
239 -327 320 -93 70 -261 161 -360 194 -221 75 -489 98 -776 65z"/>
<path d="M1110 8499 c-122 -11 -218 -32 -357 -80 -238 -82 -317 -131 -483
-299 -120 -120 -170 -236 -170 -389 0 -94 20 -154 66 -202 l25 -27 -83 -7
c-80 -6 -119 -17 -107 -29 3 -3 39 -1 80 4 126 18 582 24 725 11 293 -28 611
-102 811 -190 75 -32 93 -37 93 -22 0 5 -25 19 -56 31 l-55 23 52 28 c171 94
334 295 400 494 7 22 13 81 13 130 0 111 -27 178 -105 260 -93 98 -280 205
-419 239 -58 14 -279 38 -320 34 -8 0 -58 -4 -110 -9z m235 -323 c49 -12 67
-22 96 -55 69 -77 74 -186 13 -267 -38 -50 -40 -48 56 -64 99 -18 121 -49 80
-115 -27 -43 -114 -102 -170 -114 -25 -6 -71 -11 -102 -11 -46 0 -62 5 -85 24
-24 20 -27 30 -25 71 1 41 0 46 -16 39 -49 -21 -155 -43 -213 -43 -76 -1 -165
22 -196 51 -53 49 -54 146 -5 252 52 110 133 179 262 223 78 27 212 30 305 9z"/>
<path d="M2765 7324 c-180 -18 -250 -29 -368 -58 -74 -19 -165 -49 -203 -67
-92 -46 -165 -118 -192 -192 -23 -59 -30 -157 -12 -157 6 0 10 17 10 38 0 113
74 220 198 285 87 46 306 101 468 118 163 17 456 14 574 -5 272 -44 433 -127
515 -265 17 -28 33 -51 38 -51 27 -1 -22 83 -92 155 -22 23 -72 59 -109 78
-72 38 -234 89 -342 107 -66 11 -413 21 -485 14z"/>
<path d="M2587 7011 c-54 -11 -90 -41 -107 -89 -13 -39 -13 -45 4 -76 10 -19
30 -39 45 -45 83 -32 218 -19 271 26 23 19 30 33 30 60 0 47 -33 99 -72 112
-44 16 -126 21 -171 12z m156 -34 c62 -27 75 -103 24 -141 -21 -15 -47 -22
-102 -24 -83 -5 -140 10 -156 40 -23 44 14 118 66 131 42 10 137 6 168 -6z"/>
<path d="M3341 6961 c-34 -9 -65 -53 -56 -80 13 -43 94 -64 144 -38 40 20 45
53 13 86 -29 32 -63 42 -101 32z m67 -37 c15 -10 22 -24 20 -37 -2 -17 -11
-23 -40 -25 -68 -6 -101 31 -56 62 28 20 48 20 76 0z"/>
<path d="M3140 6295 c-247 -35 -473 -91 -630 -157 -117 -49 -303 -146 -392
-205 -130 -85 -237 -237 -257 -363 -20 -120 16 -268 90 -379 45 -67 64 -85 79
-76 7 4 -3 22 -25 47 -45 50 -100 162 -116 236 -19 93 -8 200 29 274 75 152
175 236 447 372 222 112 409 168 740 223 84 14 162 18 330 17 251 0 298 -8
431 -74 91 -45 204 -149 248 -229 54 -101 72 -285 41 -434 -28 -135 -107 -308
-158 -349 -31 -24 -12 -35 20 -11 38 27 93 134 134 256 33 100 34 105 34 272
0 169 0 170 -31 235 -77 162 -226 283 -411 335 -84 24 -460 30 -603 10z"/>
<path d="M3235 4912 c-112 -60 -247 -157 -344 -248 -130 -123 -237 -274 -229
-327 7 -47 173 -95 358 -104 121 -5 170 -1 475 44 47 6 81 23 114 54 32 30 25
67 -44 203 -51 104 -56 118 -65 216 -13 132 -24 166 -60 185 -53 27 -127 19
-205 -23z m-482 -467 c-3 -9 -8 -14 -10 -11 -3 3 -2 9 2 15 9 16 15 13 8 -4z
m-40 -70 c-3 -9 -8 -14 -10 -11 -3 3 -2 9 2 15 9 16 15 13 8 -4z m734 -71 c-3
-3 -12 -4 -19 -1 -8 3 -5 6 6 6 11 1 17 -2 13 -5z m-44 -11 c-7 -2 -19 -2 -25
0 -7 3 -2 5 12 5 14 0 19 -2 13 -5z m-198 -23 c-3 -5 -23 -9 -43 -9 l-37 2 40
7 c22 4 41 8 43 9 2 0 0 -3 -3 -9z"/>
<path d="M0 1193 c0 -255 2 -463 5 -463 3 0 23 11 44 25 44 27 127 57 216 76
86 19 332 18 367 -1 14 -8 79 -65 145 -126 65 -61 153 -141 195 -178 85 -73
96 -98 84 -183 -9 -71 -41 -130 -101 -188 -63 -62 -122 -99 -209 -131 l-61
-23 535 0 535 0 -60 36 c-182 112 -490 326 -616 429 -181 148 -612 578 -740
739 -53 66 -139 181 -192 255 -53 74 -108 149 -122 165 l-24 30 -1 -462z"/>
<path d="M0 71 l0 -71 138 0 137 0 -65 24 c-82 29 -139 58 -179 91 l-31 27 0
-71z"/>
</g>
</svg>
