<?xml version="1.0" standalone="no"?>
<!DOCTYPE svg PUBLIC "-//W3C//DTD SVG 20010904//EN"
 "http://www.w3.org/TR/2001/REC-SVG-20010904/DTD/svg10.dtd">
<svg version="1.0" xmlns="http://www.w3.org/2000/svg"
 viewBox="0 0 512 512"
 preserveAspectRatio="xMidYMid meet">

<g transform="translate(0.000000,736.000000) scale(0.100000,-0.100000)"
fill="#000000" stroke="none">
<path d="M3595 6999 c-174 -22 -377 -88 -564 -184 -178 -91 -275 -198 -283
-310 l-3 -50 -85 -49 c-105 -60 -218 -136 -290 -194 -116 -93 -329 -314 -406
-422 l-36 -50 -88 0 c-118 0 -293 -31 -426 -76 -653 -218 -1002 -828 -839
-1469 46 -182 146 -380 268 -531 103 -126 261 -274 358 -332 69 -41 269 -142
283 -142 2 0 20 -7 41 -16 l38 -15 -37 -31 c-88 -73 -389 -494 -573 -804 -93
-156 -113 -207 -113 -292 0 -110 64 -312 128 -405 51 -74 159 -205 211 -255
41 -39 114 -72 161 -72 16 0 135 73 253 157 38 26 98 78 134 116 36 37 66 67
68 67 6 0 -46 -267 -79 -397 -46 -187 -76 -492 -76 -763 0 -115 25 -207 74
-279 24 -34 24 -40 16 -115 -5 -44 -8 -81 -6 -83 1 -2 268 -2 592 -1 l589 3
-60 29 c-76 36 -190 47 -510 51 -212 2 -238 4 -331 28 -55 15 -127 29 -159 33
-74 9 -112 41 -151 126 -25 55 -29 78 -32 176 -5 136 13 468 33 607 8 55 28
151 45 214 16 62 41 179 55 258 21 121 29 151 53 181 15 21 36 50 46 66 l18
29 33 -62 c46 -85 50 -89 114 -108 103 -30 221 -16 346 42 78 35 97 53 120
109 17 41 13 67 -17 106 -16 21 -19 34 -13 78 5 40 3 59 -9 76 -14 22 -13 24
22 47 53 34 85 103 85 184 0 112 -55 189 -135 189 -34 1 -38 3 -38 27 0 35
-19 90 -39 113 -9 10 -34 27 -55 38 -35 18 -50 19 -150 13 -61 -4 -128 -13
-148 -21 -45 -15 -46 -13 -22 65 8 29 13 58 11 64 -2 7 -11 -15 -21 -48 -24
-87 -33 -105 -53 -105 -25 0 -92 -36 -126 -69 -62 -57 -72 -108 -43 -224 18
-72 20 -87 8 -82 -32 12 -266 55 -299 55 -58 0 -35 -8 72 -24 55 -9 133 -24
174 -33 68 -16 75 -20 88 -51 8 -19 13 -48 11 -66 -3 -30 -5 -31 -53 -34 -103
-5 -135 -27 -135 -92 0 -51 34 -140 66 -175 23 -25 29 -26 99 -23 41 2 75 0
75 -3 0 -12 -64 -95 -129 -168 -71 -79 -165 -154 -311 -246 -82 -52 -95 -57
-132 -52 -23 3 -60 18 -82 34 -47 33 -209 223 -257 301 -43 70 -96 230 -110
328 -10 72 -9 85 10 138 27 77 112 223 278 474 197 300 318 460 395 523 l38
30 158 -55 c298 -102 804 -224 1123 -271 l46 -7 5 -63 c7 -75 43 -150 91 -182
105 -72 283 -32 458 103 l73 57 214 -17 c603 -48 1250 -41 1643 17 l86 13 21
-30 c54 -80 104 -208 182 -471 23 -77 48 -158 56 -181 8 -23 25 -86 39 -140
28 -115 94 -319 137 -419 16 -38 69 -173 118 -300 48 -126 109 -283 134 -347
52 -133 55 -166 25 -263 -17 -57 -30 -76 -87 -134 -114 -115 -155 -137 -492
-266 -91 -35 -183 -68 -205 -75 -47 -15 -159 -72 -195 -100 -25 -19 -23 -20
456 -20 l482 0 11 63 c6 35 11 75 11 88 0 48 -31 144 -65 198 l-33 55 53 58
c64 69 96 146 97 233 1 52 -9 85 -72 245 -40 102 -88 226 -107 275 -18 50 -56
146 -84 215 -71 174 -135 367 -164 486 -13 55 -30 118 -38 140 -9 21 -32 95
-52 164 -78 267 -162 485 -195 505 -19 12 -10 23 26 30 35 6 39 3 118 -73 150
-145 278 -202 461 -202 283 0 454 113 633 417 120 203 151 423 92 648 -41 154
-176 378 -272 450 l-38 29 0 97 c0 364 -109 810 -285 1160 -98 197 -177 318
-298 461 -46 55 -58 77 -81 158 -32 111 -76 194 -143 269 -66 75 -125 101
-227 101 -74 0 -81 2 -120 33 -190 154 -488 325 -722 412 -190 71 -272 88
-436 89 l-148 1 -12 29 c-29 71 -114 137 -204 161 -63 16 -149 18 -259 4z m13
-523 c2 -22 -4 -91 -13 -155 -19 -132 -14 -287 12 -356 34 -88 127 -155 226
-162 57 -4 67 -2 116 29 39 24 62 47 83 84 42 76 77 228 90 392 13 162 3 150
118 132 87 -14 243 -63 336 -105 158 -72 319 -185 264 -185 -26 0 -219 -101
-257 -134 -55 -48 -92 -129 -100 -221 -8 -103 22 -152 120 -195 118 -52 212
-35 462 89 265 130 307 143 324 99 5 -13 11 -115 14 -228 7 -221 13 -268 53
-372 32 -84 56 -116 108 -139 102 -46 208 -8 267 97 l32 56 12 -29 c25 -59 55
-212 71 -363 12 -119 15 -217 11 -420 -5 -278 -21 -413 -57 -497 -10 -23 -16
-44 -14 -46 3 -3 28 19 57 47 102 101 213 163 320 178 68 9 80 7 150 -16 76
-26 153 -73 192 -118 89 -102 188 -284 221 -408 24 -89 26 -333 2 -405 -45
-139 -142 -313 -234 -420 -67 -77 -176 -148 -277 -180 -67 -22 -102 -26 -192
-27 -181 0 -293 48 -454 197 -60 55 -99 84 -110 81 -53 -16 -370 -52 -571 -66
-132 -8 -946 -5 -1025 5 -22 2 -105 9 -185 15 -952 70 -1924 286 -2432 541
-148 74 -230 132 -342 239 -552 532 -608 1299 -131 1799 215 226 493 361 835
407 58 7 134 14 171 14 l65 0 41 58 c63 90 254 293 353 376 114 96 393 279
404 265 1 -2 10 -25 20 -52 35 -94 149 -153 263 -135 93 14 152 40 262 114
134 91 186 122 241 145 62 25 74 21 78 -25z m-593 -3676 c72 -11 454 -60 474
-60 25 0 -37 -57 -110 -101 -102 -61 -163 -82 -244 -83 -127 0 -192 62 -211
202 -8 60 -10 58 91 42z m-686 -178 c56 -30 71 -70 71 -191 0 -101 1 -104 31
-139 33 -38 33 -38 13 -165 -5 -31 -2 -45 16 -69 19 -26 22 -38 16 -85 -5 -47
-3 -58 19 -91 31 -46 32 -78 1 -123 -61 -90 -301 -152 -431 -112 l-60 18 -40
78 c-35 68 -43 77 -62 72 -12 -3 -49 -8 -82 -12 -48 -4 -66 -2 -86 11 -37 24
-75 110 -75 168 0 60 23 77 110 83 94 6 96 17 46 174 -48 151 -52 186 -24 241
29 58 97 99 210 128 108 28 118 29 213 31 61 1 89 -3 114 -17z m190 -197 c16
-14 37 -46 47 -70 32 -84 -3 -217 -66 -250 -41 -21 -43 -20 -36 28 20 128 20
122 -16 162 -29 33 -33 45 -31 87 1 27 5 53 8 58 12 19 63 10 94 -15z"/>
<path d="M3040 6119 c-128 -14 -249 -68 -370 -164 -60 -48 -150 -143 -150
-159 0 -16 22 0 100 77 95 91 217 168 314 199 33 11 102 22 151 25 143 8 254
-37 357 -145 116 -121 167 -281 161 -499 -2 -84 0 -103 12 -103 11 0 15 19 17
83 10 275 -80 491 -253 606 -98 66 -216 93 -339 80z"/>
<path d="M2860 5620 c-115 -18 -245 -85 -322 -166 -81 -86 -138 -234 -138
-355 1 -241 156 -458 394 -550 103 -40 235 -50 339 -25 204 48 360 205 403
405 18 85 18 133 -1 222 -63 299 -373 514 -675 469z m218 -404 c71 -37 97 -83
97 -171 0 -63 -3 -76 -28 -108 -83 -109 -261 -106 -335 6 -23 34 -27 52 -27
108 0 60 3 71 31 106 65 81 171 105 262 59z"/>
<path d="M4615 5471 c-110 -18 -263 -88 -348 -159 -90 -75 -147 -135 -147
-155 0 -26 8 -21 88 53 83 76 83 76 147 117 133 84 240 116 390 116 94 0 121
-4 184 -26 224 -81 386 -293 427 -562 5 -27 9 -53 10 -57 1 -5 2 -46 3 -93 1
-68 4 -85 16 -85 12 0 15 16 15 88 0 227 -82 442 -220 583 -84 85 -199 149
-311 175 -44 10 -203 13 -254 5z"/>
<path d="M4244 5091 c-237 -64 -394 -261 -394 -493 0 -146 43 -255 142 -364
144 -156 358 -225 564 -179 274 60 456 315 414 579 -33 205 -182 377 -384 442
-111 36 -244 42 -342 15z m255 -355 c120 -76 154 -200 84 -300 -42 -60 -94
-86 -173 -86 -145 1 -250 95 -250 225 0 63 14 97 58 138 67 64 199 75 281 23z"/>
<path d="M2190 3403 c-30 -16 -56 -34 -58 -40 -5 -19 16 -16 48 7 45 32 119
45 176 31 73 -19 134 -77 134 -128 0 -13 5 -23 11 -23 8 0 10 14 6 41 -16 118
-187 178 -317 112z"/>
<path d="M3584 2495 c-36 -36 -51 -45 -80 -45 -57 0 -121 -45 -153 -107 -20
-38 -13 -123 14 -181 14 -30 25 -60 25 -68 0 -8 -15 -37 -34 -64 -19 -27 -39
-73 -45 -102 -7 -29 -22 -74 -33 -100 -20 -46 -20 -47 -2 -95 38 -96 217 -243
295 -243 53 1 109 32 175 98 34 34 66 62 72 62 6 0 20 -16 32 -35 16 -26 19
-39 11 -53 -14 -27 -16 -103 -4 -127 12 -22 96 -105 253 -250 100 -93 180
-156 245 -195 22 -13 62 -42 89 -63 56 -43 130 -84 125 -68 -2 6 -27 25 -56
43 -215 138 -323 223 -516 410 -148 144 -152 151 -126 227 10 29 13 30 28 18
32 -29 56 -28 98 2 45 33 86 108 87 160 0 27 -7 40 -34 62 l-33 28 27 36 c40
52 79 69 156 67 82 -2 324 -45 376 -67 35 -14 204 -65 218 -65 4 0 6 4 6 9 0
5 -17 12 -37 16 -40 7 -201 60 -209 68 -7 7 51 146 99 237 22 41 78 133 126
205 109 165 104 155 93 155 -8 0 -154 -216 -211 -312 -12 -20 -46 -89 -75
-153 -30 -64 -55 -118 -58 -120 -2 -2 -66 7 -143 21 -227 39 -282 31 -350 -49
-23 -26 -39 -37 -50 -33 -23 8 -29 34 -13 54 23 28 85 135 93 162 18 58 32
156 25 175 -27 67 -213 236 -326 295 -84 45 -123 41 -180 -15z m161 7 c97 -47
263 -189 319 -274 15 -23 16 -34 6 -90 -14 -83 -24 -108 -82 -202 -27 -44 -47
-85 -44 -92 3 -7 30 -30 61 -50 65 -43 74 -67 51 -129 -18 -46 -85 -115 -112
-115 -17 0 -66 47 -97 93 -10 15 -25 27 -34 27 -9 0 -40 -27 -70 -59 -58 -65
-121 -101 -174 -101 -72 1 -219 115 -264 207 -25 51 -26 60 -15 88 7 16 20 59
30 95 19 72 31 99 67 146 21 28 23 38 17 88 l-7 57 70 67 c45 43 74 80 80 102
6 19 16 54 22 77 11 39 40 70 81 86 26 9 33 8 95 -21z m-195 -77 c0 -30 -48
-121 -72 -137 -43 -28 -88 -79 -88 -99 0 -31 -17 -22 -24 12 -21 105 11 185
87 220 51 23 97 25 97 4z"/>
<path d="M2843 2477 c-18 -20 -149 -204 -167 -234 -4 -7 -3 -13 2 -13 4 0 41
48 82 108 40 59 82 117 93 129 11 13 18 25 15 28 -2 3 -14 -5 -25 -18z"/>
<path d="M3095 2358 c-2 -7 -14 -60 -25 -118 -12 -58 -23 -114 -27 -125 -3
-13 -2 -17 5 -10 8 8 33 109 57 233 6 31 -1 45 -10 20z"/>
<path d="M1441 1950 c-58 -32 -94 -60 -87 -68 3 -2 24 9 48 26 24 16 60 35 81
43 20 7 37 17 37 21 0 15 -25 8 -79 -22z"/>
<path d="M1480 1705 c-19 -19 -30 -35 -26 -35 14 0 76 59 67 64 -4 3 -23 -10
-41 -29z"/>
<path d="M4320 1633 c1 -9 121 -65 127 -59 5 5 -75 51 -104 60 -13 4 -23 4
-23 -1z"/>
<path d="M4250 1423 c0 -5 13 -17 29 -28 16 -11 50 -38 75 -59 26 -21 49 -37
52 -34 5 6 -136 128 -148 128 -4 0 -8 -3 -8 -7z"/>
<path d="M5484 1367 c-33 -34 -77 -85 -98 -112 -53 -67 -208 -221 -276 -274
-53 -42 -102 -95 -69 -76 52 31 226 189 289 262 41 48 104 119 140 158 80 86
95 105 82 105 -5 0 -36 -28 -68 -63z"/>
<path d="M4959 861 c-57 -47 -132 -75 -184 -68 -25 4 -45 3 -45 -2 0 -13 64
-23 97 -15 36 8 123 55 123 65 0 5 6 6 13 4 11 -5 43 32 35 41 -2 2 -20 -9
-39 -25z"/>
<path d="M4580 851 c0 -11 31 -24 39 -16 3 3 -1 10 -9 15 -19 12 -30 12 -30 1z"/>
<path d="M4630 830 c0 -6 8 -13 18 -16 9 -3 25 -10 34 -15 23 -12 38 -11 38 1
0 6 -14 13 -30 17 -17 3 -33 10 -36 14 -7 12 -24 11 -24 -1z"/>
</g>
</svg>
