<?xml version="1.0" standalone="no"?>
<!DOCTYPE svg PUBLIC "-//W3C//DTD SVG 20010904//EN"
 "http://www.w3.org/TR/2001/REC-SVG-20010904/DTD/svg10.dtd">
<svg version="1.0" xmlns="http://www.w3.org/2000/svg"
viewBox="0 0 512 512"
 preserveAspectRatio="xMidYMid meet">

<g transform="translate(0.000000,736.000000) scale(0.100000,-0.100000)"
fill="#000000" stroke="none">
<path d="M1335 7353 c50 -11 594 -115 715 -136 74 -13 293 -54 485 -90 445
-85 845 -160 1050 -198 288 -53 487 -90 665 -125 96 -19 216 -41 265 -50 115
-19 115 -19 530 -98 193 -36 449 -84 570 -107 121 -22 263 -49 315 -59 52 -10
133 -25 180 -34 47 -8 180 -33 295 -55 341 -65 569 -108 754 -141 96 -18 180
-34 188 -37 7 -3 13 1 13 10 0 11 -25 19 -97 32 -54 9 -262 48 -463 87 -201
38 -426 80 -500 93 -74 13 -220 40 -325 60 -215 42 -361 69 -485 91 -139 24
-604 114 -617 119 -10 3 -13 78 -13 325 0 268 -2 320 -14 320 -12 0 -13 -49
-9 -321 l6 -320 -24 5 c-13 3 -67 13 -119 22 -52 8 -248 45 -435 80 -187 36
-356 68 -375 71 -19 3 -208 38 -420 78 -212 40 -461 87 -555 104 -346 65 -720
135 -1101 207 -218 41 -415 73 -445 73 -30 -1 -45 -3 -34 -6z"/>
<path d="M0 6701 c0 -11 14 -14 305 -70 116 -22 383 -74 595 -115 212 -41 536
-104 720 -140 184 -36 396 -77 470 -90 429 -80 581 -114 605 -136 32 -30 63
-106 71 -172 l6 -55 -78 -60 c-44 -33 -109 -89 -147 -123 l-67 -62 -48 50
c-71 75 -137 105 -245 110 -52 3 -93 0 -98 -5 -7 -7 18 -12 73 -15 117 -6 221
-57 277 -137 l19 -27 -60 -69 c-88 -103 -207 -287 -268 -417 l-54 -114 -120 0
c-138 1 -202 -14 -278 -64 -198 -132 -268 -369 -180 -617 39 -112 84 -182 172
-270 119 -119 253 -186 408 -204 81 -9 152 -32 152 -49 0 -4 -14 -10 -31 -14
-17 -3 -48 -21 -69 -39 -25 -21 -67 -42 -115 -56 -81 -25 -110 -47 -169 -131
-31 -44 -38 -48 -156 -92 -41 -15 -102 -67 -129 -111 -18 -30 -25 -60 -22 -99
2 -31 61 -86 116 -109 30 -12 55 -25 55 -28 0 -3 -18 -28 -41 -56 -66 -82
-114 -156 -149 -230 -25 -53 -54 -91 -122 -159 -48 -48 -91 -100 -95 -114 -8
-33 8 -56 41 -60 23 -3 26 -8 26 -42 0 -43 18 -60 64 -60 15 0 30 -8 36 -20
11 -21 58 -28 76 -10 6 6 21 6 43 -3 32 -11 34 -11 60 20 l27 33 23 -31 c45
-60 102 -12 111 93 l5 61 75 46 c42 25 98 63 124 84 l49 37 33 -34 c40 -41 40
-50 19 -221 -18 -147 -36 -230 -86 -405 -54 -187 -53 -231 6 -343 28 -53 45
-99 45 -120 0 -19 -9 -101 -20 -183 -20 -144 -20 -153 -4 -271 21 -151 18
-160 -82 -250 -107 -96 -109 -144 -11 -188 89 -40 193 -56 294 -46 106 12 351
48 411 62 98 22 194 89 318 224 107 116 146 141 243 155 76 11 89 15 148 56
44 30 89 31 166 4 68 -24 98 -25 174 -5 120 31 211 16 281 -48 55 -51 122
-151 122 -183 0 -26 20 -75 35 -87 5 -4 35 -5 66 -2 65 7 97 -12 119 -67 33
-84 74 -101 193 -77 70 14 98 7 147 -37 46 -42 69 -42 164 2 l55 25 52 -27
c48 -26 55 -27 98 -15 62 16 91 50 91 105 0 62 -23 118 -74 185 -65 85 -71
100 -52 146 22 53 20 94 -9 140 -34 55 -32 95 10 169 43 77 44 112 5 194 -47
99 -60 157 -70 312 -6 80 -13 159 -16 176 -4 23 1 40 20 68 14 20 28 56 31 79
4 24 15 53 25 66 l18 24 17 -59 c11 -37 18 -98 19 -164 1 -98 2 -105 24 -116
17 -8 35 -9 62 -2 26 7 49 7 69 0 23 -8 36 -7 64 8 19 10 44 16 55 14 19 -6
75 17 86 35 4 5 11 33 16 61 9 46 7 58 -17 113 -22 53 -28 83 -34 202 -4 77
-12 160 -18 185 -5 25 -9 45 -8 45 1 1 25 10 52 20 39 16 54 29 68 57 17 35
17 38 -3 95 -63 175 -82 243 -87 318 l-5 80 79 37 c232 108 387 271 440 463
19 71 19 227 -2 308 -49 197 -163 380 -372 599 -56 59 -109 120 -117 137 -16
29 -27 91 -45 244 -8 72 -7 82 12 115 18 31 22 53 22 127 0 127 -28 206 -103
286 -58 63 -142 119 -177 119 -20 0 -45 17 -45 31 0 7 16 4 580 -106 212 -41
558 -108 770 -149 212 -41 506 -98 653 -126 148 -29 271 -49 274 -46 15 14
-22 25 -212 60 -110 20 -220 41 -245 46 -25 5 -198 39 -385 75 -407 78 -1053
203 -1294 251 l-175 34 -46 47 c-25 27 -74 74 -109 106 l-63 58 25 32 c13 18
48 55 76 82 50 49 60 65 41 65 -12 0 -122 -109 -145 -143 l-16 -26 -83 54
c-83 54 -220 125 -242 125 -6 0 -16 6 -22 13 -16 19 36 104 92 154 49 43 55
53 32 53 -24 0 -111 -92 -135 -142 -13 -27 -26 -48 -29 -48 -4 0 -43 12 -87
25 -102 33 -270 62 -406 71 l-106 7 9 39 c10 47 41 110 74 155 17 22 21 34 13
39 -23 14 -87 -95 -110 -187 -13 -51 -28 -59 -104 -59 -69 0 -285 -43 -397
-79 l-116 -38 0 72 c0 40 -5 90 -11 111 -14 52 -47 104 -66 104 -20 0 -19 -3
9 -45 29 -42 46 -114 46 -190 0 -97 13 -97 -540 11 -212 41 -524 102 -695 135
-170 33 -355 69 -410 79 -55 11 -278 54 -495 96 -217 42 -531 102 -696 135
-317 62 -334 65 -334 50z m4180 -495 c316 -68 563 -200 782 -419 l93 -92 -80
-6 c-192 -14 -336 -99 -440 -259 -52 -81 -58 -103 -38 -151 44 -110 140 -117
259 -19 85 70 186 96 259 66 27 -12 41 -29 74 -95 51 -101 75 -135 115 -156
31 -17 80 -17 117 -1 21 9 25 -6 39 -149 7 -71 18 -125 31 -153 12 -23 71 -95
131 -159 204 -217 284 -344 350 -553 26 -85 29 -251 5 -328 -76 -243 -304
-425 -649 -516 -196 -53 -318 -68 -567 -73 -458 -10 -872 57 -1371 220 -217
71 -385 141 -605 253 -177 89 -216 112 -385 222 l-84 55 47 14 c63 18 63 38 0
27 -27 -5 -91 -8 -143 -8 -79 1 -109 6 -176 31 -200 75 -358 235 -426 433 -18
53 -22 88 -22 190 0 115 2 131 27 191 67 159 223 258 407 259 128 0 234 -32
346 -106 50 -33 75 -42 73 -26 -1 20 -139 103 -216 130 l-32 11 25 58 c122
282 341 561 580 741 219 163 387 251 609 317 233 69 347 85 575 80 137 -3 200
-9 290 -29z m-1335 -66 c100 -16 219 -40 224 -45 2 -3 -8 -9 -23 -15 -15 -5
-73 -37 -131 -70 -57 -33 -106 -60 -109 -60 -2 0 -9 22 -15 48 -8 39 -25 84
-59 156 -3 5 6 6 19 3 13 -3 56 -11 94 -17z m-486 -2372 c99 -64 171 -105 325
-184 l90 -46 -33 -14 c-55 -23 -108 -71 -130 -120 -29 -60 -17 -100 45 -150
29 -24 44 -44 44 -59 0 -13 -21 -54 -46 -92 -73 -108 -97 -162 -98 -215 0 -67
18 -94 78 -117 l51 -19 -3 -94 c-1 -51 3 -105 9 -120 11 -27 52 -48 96 -48 13
0 46 -11 72 -25 52 -26 71 -58 71 -119 0 -82 52 -164 124 -197 52 -23 134 -24
197 -2 48 17 48 17 73 -6 16 -15 29 -43 36 -75 12 -59 16 -66 50 -89 32 -22
84 -21 181 3 71 18 82 19 107 6 16 -8 34 -21 41 -30 7 -8 29 -20 48 -27 30 -9
45 -8 90 7 l54 18 48 -27 c59 -32 102 -34 172 -7 l52 21 68 -21 c92 -28 145
-26 192 6 36 24 42 25 125 19 86 -7 89 -7 120 20 18 15 48 51 66 79 28 43 40
54 84 67 l51 17 5 -77 c26 -324 28 -336 80 -440 37 -72 36 -105 -7 -183 -45
-79 -46 -110 -7 -185 l30 -58 -20 -57 c-11 -31 -17 -65 -13 -75 3 -10 30 -50
60 -90 56 -74 90 -164 78 -204 -9 -26 -62 -59 -97 -59 -15 0 -42 9 -60 20 -43
26 -75 25 -140 -5 -68 -32 -103 -32 -123 -1 -26 39 -62 48 -186 44 l-114 -3
-26 54 c-37 79 -59 93 -136 89 -73 -3 -79 2 -89 70 -12 77 -113 205 -192 243
-40 20 -53 21 -155 14 -179 -11 -218 -10 -283 8 -53 15 -66 16 -105 4 -24 -8
-62 -26 -83 -40 -25 -17 -52 -27 -76 -27 -20 0 -61 -7 -91 -16 -48 -14 -68
-30 -179 -140 -187 -186 -249 -224 -400 -243 -47 -6 -130 -19 -185 -28 -55 -9
-147 -17 -205 -17 -88 0 -117 4 -179 27 -119 42 -121 64 -12 167 100 94 109
120 86 247 -19 111 -19 154 1 284 8 57 16 133 16 169 1 59 -3 73 -46 155 -45
84 -48 93 -42 145 3 30 19 99 36 153 41 128 87 359 95 475 l7 93 24 -26 c49
-53 140 -61 211 -20 23 14 43 30 43 35 0 14 -4 13 -52 -12 -47 -25 -121 -28
-159 -8 -11 7 -27 28 -36 48 -8 20 -33 55 -55 77 -23 22 -55 67 -72 100 -24
45 -44 68 -81 92 -109 70 -127 87 -155 148 -34 77 -73 115 -138 138 -57 21
-122 84 -122 119 0 31 54 109 93 136 19 13 65 34 103 48 78 28 103 48 135 110
24 44 68 71 172 104 21 7 54 26 73 42 30 27 91 56 118 58 5 0 52 -28 105 -62z
m500 -267 l38 -20 -4 -83 c-5 -108 -18 -190 -49 -313 -23 -91 -25 -114 -22
-265 3 -156 5 -168 30 -215 32 -61 65 -92 143 -135 33 -19 94 -62 135 -98 90
-76 100 -82 241 -132 122 -43 161 -64 230 -126 42 -38 55 -43 113 -49 36 -4
126 -5 198 -2 115 4 142 8 198 31 84 35 179 38 264 7 78 -28 93 -27 169 12 35
19 86 39 113 46 27 7 63 23 81 37 34 26 105 115 140 175 39 67 83 223 98 344
20 158 19 244 -4 338 l-18 77 21 5 c85 17 95 16 107 -7 11 -20 33 -267 31
-343 -1 -16 -13 -60 -28 -97 l-27 -68 22 -81 22 -81 -22 -33 c-13 -18 -36 -41
-51 -50 -33 -19 -49 -48 -71 -125 -20 -67 -44 -92 -119 -120 -50 -18 -60 -27
-87 -74 -17 -31 -45 -63 -66 -76 -34 -21 -41 -22 -95 -11 -67 13 -105 7 -137
-22 -27 -24 -108 -25 -174 -2 -52 19 -106 19 -139 0 -41 -23 -113 -19 -156 10
-42 29 -54 30 -109 10 -58 -21 -75 -19 -129 20 -55 39 -78 42 -151 19 -27 -8
-76 -16 -107 -17 -71 -2 -93 16 -108 86 -22 102 -55 125 -139 96 -98 -34 -160
-23 -223 38 -41 40 -53 70 -63 155 -4 34 -15 67 -27 83 -27 35 -92 66 -153 74
-67 8 -80 33 -64 125 16 95 2 132 -56 147 -52 13 -64 25 -72 73 -8 49 18 113
84 209 29 43 54 88 54 100 3 45 -3 62 -24 80 -82 67 -91 90 -63 145 26 50 122
122 163 122 13 0 41 -9 62 -19z m158 -67 c387 -161 888 -279 1338 -315 142
-11 483 -7 546 7 25 6 27 3 43 -60 30 -123 13 -402 -34 -546 -55 -166 -163
-306 -256 -333 -27 -8 -78 -29 -112 -46 -72 -36 -98 -38 -170 -11 -80 31 -171
27 -274 -11 -82 -30 -84 -30 -258 -27 l-176 3 -50 44 c-71 62 -117 87 -248
131 -107 35 -124 45 -213 118 -54 43 -128 96 -165 117 -118 68 -143 128 -142
340 1 134 4 164 32 275 18 71 32 150 32 185 0 62 10 165 16 165 2 0 43 -16 91
-36z m2353 -279 c0 -74 25 -174 71 -286 22 -54 30 -85 25 -103 -9 -37 -61 -66
-119 -66 -27 0 -72 -10 -105 -24 -39 -16 -69 -22 -94 -19 -43 6 -44 8 -22 63
12 30 15 58 10 113 -3 39 -10 119 -15 177 -5 58 -12 114 -15 125 -6 18 4 23
106 51 165 46 158 47 158 -31z m-3579 -79 c43 -81 75 -114 153 -158 56 -31
104 -89 106 -125 0 -13 -120 -102 -180 -133 -19 -10 -47 -29 -62 -43 -24 -22
-28 -34 -28 -79 0 -56 -20 -98 -46 -98 -8 0 -14 4 -14 8 0 5 -10 18 -21 31
l-21 23 -32 -31 c-27 -26 -36 -30 -69 -24 -24 3 -42 1 -53 -8 -13 -11 -19 -9
-37 14 -15 17 -34 27 -57 29 -34 3 -35 5 -40 48 -4 40 -8 45 -32 48 -49 6 -34
38 60 130 58 57 96 104 111 137 54 118 190 310 215 302 6 -2 27 -34 47 -71z
m3555 -463 c10 -36 19 -113 23 -203 6 -123 10 -152 29 -188 19 -35 21 -52 16
-93 -8 -57 -30 -79 -82 -79 -18 0 -46 -7 -62 -15 -23 -12 -34 -13 -54 -3 -20
8 -36 8 -67 -1 -63 -19 -71 -7 -63 100 5 68 3 96 -9 126 -27 68 -25 96 11 137
37 42 40 74 17 150 -8 27 -15 59 -15 72 0 21 3 22 58 17 44 -4 67 0 102 16 69
32 76 29 96 -36z"/>
<path d="M3495 5833 c-237 -29 -516 -234 -640 -471 -48 -92 -42 -152 21 -201
59 -47 131 -37 204 29 191 172 315 243 457 265 118 18 247 -76 292 -215 20
-61 51 -91 101 -97 54 -6 102 22 134 77 61 103 -18 378 -141 490 -111 101
-260 144 -428 123z"/>
<path d="M3481 5095 c-141 -31 -258 -83 -409 -181 -159 -104 -276 -205 -234
-204 4 0 37 24 73 54 162 131 381 256 514 292 93 25 247 30 324 9 130 -34 232
-138 280 -287 7 -22 19 -38 27 -38 20 0 13 25 -38 127 -98 198 -292 281 -537
228z"/>
<path d="M4990 4940 c-67 -13 -151 -44 -201 -75 -119 -75 -244 -185 -219 -193
6 -2 26 9 43 26 62 58 193 147 266 181 64 30 84 34 160 35 116 1 164 -18 234
-93 29 -32 64 -80 76 -106 15 -33 26 -44 33 -37 17 17 -49 127 -109 182 -76
70 -181 99 -283 80z"/>
<path d="M3620 4612 c-137 -42 -230 -149 -230 -267 0 -259 407 -373 606 -170
109 112 108 264 -3 366 -87 80 -244 110 -373 71z m178 -232 c46 -43 17 -110
-46 -110 -44 0 -72 24 -72 62 0 60 73 89 118 48z"/>
<path d="M4585 4497 c-69 -23 -123 -56 -148 -89 -110 -147 -65 -298 113 -382
57 -26 76 -30 150 -30 105 0 177 26 239 85 82 79 101 170 57 264 -30 64 -66
97 -141 131 -71 33 -203 43 -270 21z m138 -195 c38 -34 5 -102 -51 -102 -18 0
-38 10 -52 25 -20 21 -22 30 -14 52 17 50 74 62 117 25z"/>
<path d="M4620 3306 c-52 -26 -52 -64 1 -91 43 -23 96 -13 111 21 10 21 8 28
-8 45 -28 27 -77 40 -104 25z"/>
</g>
</svg>
